<svg xmlns="http://www.w3.org/2000/svg" width="260" height="170" fill="none">
  <defs>
    <style>
      @font-face{font-family:&quot;Inter&quot;;src:url(https://fonts.gstatic.com/s/inter/v18/UcCO3FwrK3iLTeHuS_nVMrMxCp50SjIw2boKoduKmMEVuLyfAZ9hiA.woff2)format(&quot;woff2&quot;)}
    </style>
  </defs>
  <path fill="#fff" d="M1 1h258v168H1z"/>
  <path stroke="#000" stroke-width="2" d="M1 1h258v168H1z"/>
  <path fill="#D4D45B" d="M5 85h10v10H5zM45 85h10v10H45z"/>
  <path fill="#D4985B" d="M85 85h10v10H85zM125 85h10v10h-10zM85 125h10v10H85z"/>
  <path fill="#5BD45B" d="M85 45h10v10H85zM85 5h10v10H85z"/>
  <circle cx="10" cy="10" r="3" fill="red"/>
  <circle cx="50" cy="10" r="2.5" stroke="red"/>
  <path stroke="#0F0" d="M17.625 10 20 6.83333 22.375 10 20 13.1667 17.625 10ZM37.625 10 40 6.83333 42.375 10 40 13.1667 37.625 10ZM7.625 20 10 16.8333 12.375 20 10 23.1667 7.625 20ZM17.625 20 20 16.8333 22.375 20 20 23.1667 17.625 20ZM27.625 20 30 16.8333 32.375 20 30 23.1667 27.625 20ZM37.625 20 40 16.8333 42.375 20 40 23.1667 37.625 20ZM47.625 20 50 16.8333 52.375 20 50 23.1667 47.625 20ZM57.625 20 60 16.8333 62.375 20 60 23.1667 57.625 20ZM67.625 20 70 16.8333 72.375 20 70 23.1667 67.625 20ZM77.625 20 80 16.8333 82.375 20 80 23.1667 77.625 20ZM7.625 60 10 56.8333 12.375 60 10 63.1667 7.625 60ZM17.625 60 20 56.8333 22.375 60 20 63.1667 17.625 60ZM27.625 60 30 56.8333 32.375 60 30 63.1667 27.625 60ZM37.625 60 40 56.8333 42.375 60 40 63.1667 37.625 60ZM47.625 60 50 56.8333 52.375 60 50 63.1667 47.625 60ZM57.625 60 60 56.8333 62.375 60 60 63.1667 57.625 60ZM67.625 60 70 56.8333 72.375 60 70 63.1667 67.625 60ZM77.625 60 80 56.8333 82.375 60 80 63.1667 77.625 60ZM7.625 40 10 36.8333 12.375 40 10 43.1667 7.625 40ZM17.625 40 20 36.8333 22.375 40 20 43.1667 17.625 40ZM27.625 40 30 36.8333 32.375 40 30 43.1667 27.625 40ZM37.625 40 40 36.8333 42.375 40 40 43.1667 37.625 40ZM47.625 40 50 36.8333 52.375 40 50 43.1667 47.625 40ZM57.625 40 60 36.8333 62.375 40 60 43.1667 57.625 40ZM67.625 40 70 36.8333 72.375 40 70 43.1667 67.625 40ZM77.625 40 80 36.8333 82.375 40 80 43.1667 77.625 40ZM7.625 80 10 76.8333 12.375 80 10 83.1667 7.625 80ZM17.625 80 20 76.8333 22.375 80 20 83.1667 17.625 80ZM27.625 80 30 76.8333 32.375 80 30 83.1667 27.625 80ZM37.625 80 40 76.8333 42.375 80 40 83.1667 37.625 80ZM47.625 80 50 76.8333 52.375 80 50 83.1667 47.625 80ZM57.625 80 60 76.8333 62.375 80 60 83.1667 57.625 80ZM67.625 80 70 76.8333 72.375 80 70 83.1667 67.625 80ZM77.625 80 80 76.8333 82.375 80 80 83.1667 77.625 80Z"/>
  <path stroke="#00F" d="M32.191 12.5h-4.382L30 8.11803 32.191 12.5Z"/>
  <path stroke="#0F0" d="M17.625 30 20 26.8333 22.375 30 20 33.1667 17.625 30Z"/>
  <path stroke="#00F" d="M12.191 32.5H7.80902L10 28.118l2.191 4.382Z"/>
  <path stroke="#0F0" d="M37.625 30 40 26.8333 42.375 30 40 33.1667 37.625 30Z"/>
  <path stroke="#00F" d="M32.191 32.5h-4.382L30 28.118l2.191 4.382Z"/>
  <path stroke="#0F0" d="M57.625 30 60 26.8333 62.375 30 60 33.1667 57.625 30Z"/>
  <path stroke="#00F" d="M52.191 32.5h-4.382L50 28.118l2.191 4.382Z"/>
  <path stroke="#0F0" d="M77.625 30 80 26.8333 82.375 30 80 33.1667 77.625 30Z"/>
  <path stroke="#00F" d="M72.191 32.5h-4.382L70 28.118l2.191 4.382Z"/>
  <path stroke="#0F0" d="M17.625 70 20 66.8333 22.375 70 20 73.1667 17.625 70Z"/>
  <path stroke="#00F" d="M12.191 72.5H7.80902L10 68.118l2.191 4.382Z"/>
  <path stroke="#0F0" d="M37.625 70 40 66.8333 42.375 70 40 73.1667 37.625 70Z"/>
  <path stroke="#00F" d="M32.191 72.5h-4.382L30 68.118l2.191 4.382Z"/>
  <path stroke="#0F0" d="M57.625 70 60 66.8333 62.375 70 60 73.1667 57.625 70Z"/>
  <path stroke="#00F" d="M52.191 72.5h-4.382L50 68.118l2.191 4.382Z"/>
  <path stroke="#0F0" d="M77.625 70 80 66.8333 82.375 70 80 73.1667 77.625 70Z"/>
  <path stroke="#00F" d="M72.191 72.5h-4.382L70 68.118l2.191 4.382Z"/>
  <path stroke="#0F0" d="M57.625 10 60 6.83333 62.375 10 60 13.1667 57.625 10ZM77.625 10 80 6.83333 82.375 10 80 13.1667 77.625 10Z"/>
  <path stroke="#00F" d="M72.191 12.5h-4.382L70 8.11803 72.191 12.5Z"/>
  <circle cx="50" cy="10" r="2.5" stroke="red"/>
  <path stroke="#0F0" d="M57.625 10 60 6.83333 62.375 10 60 13.1667 57.625 10ZM77.625 10 80 6.83333 82.375 10 80 13.1667 77.625 10Z"/>
  <path stroke="#00F" d="M72.191 12.5h-4.382L70 8.11803 72.191 12.5Z"/>
  <circle cx="10" cy="50" r="2.5" stroke="red"/>
  <path stroke="#0F0" d="M17.625 50 20 46.8333 22.375 50 20 53.1667 17.625 50ZM37.625 50 40 46.8333 42.375 50 40 53.1667 37.625 50Z"/>
  <path stroke="#00F" d="M32.191 52.5h-4.382L30 48.118l2.191 4.382Z"/>
  <circle cx="50" cy="50" r="2.5" stroke="red"/>
  <path stroke="#00F" d="M72.191 52.5h-4.382L70 48.118l2.191 4.382Z"/>
  <path stroke="#0F0" d="M57.625 50 60 46.8333 62.375 50 60 53.1667 57.625 50ZM77.625 50 80 46.8333 82.375 50 80 53.1667 77.625 50Z"/>
  <circle cx="10" cy="90" r="3" fill="red"/>
  <circle cx="50" cy="90" r="2.5" stroke="red"/>
  <path stroke="#0F0" d="M17.625 90 20 86.8333 22.375 90 20 93.1667 17.625 90ZM37.625 90 40 86.8333 42.375 90 40 93.1667 37.625 90ZM7.625 100 10 96.8333 12.375 100 10 103.167 7.625 100ZM17.625 100 20 96.8333 22.375 100 20 103.167 17.625 100ZM27.625 100 30 96.8333 32.375 100 30 103.167 27.625 100ZM37.625 100 40 96.8333 42.375 100 40 103.167 37.625 100ZM47.625 100 50 96.8333 52.375 100 50 103.167 47.625 100ZM57.625 100 60 96.8333 62.375 100 60 103.167 57.625 100ZM67.625 100 70 96.8333 72.375 100 70 103.167 67.625 100ZM77.625 100 80 96.8333 82.375 100 80 103.167 77.625 100ZM7.625 140 10 136.833 12.375 140 10 143.167 7.625 140ZM17.625 140 20 136.833 22.375 140 20 143.167 17.625 140ZM27.625 140 30 136.833 32.375 140 30 143.167 27.625 140ZM37.625 140 40 136.833 42.375 140 40 143.167 37.625 140ZM47.625 140 50 136.833 52.375 140 50 143.167 47.625 140ZM57.625 140 60 136.833 62.375 140 60 143.167 57.625 140ZM67.625 140 70 136.833 72.375 140 70 143.167 67.625 140ZM77.625 140 80 136.833 82.375 140 80 143.167 77.625 140ZM7.625 120 10 116.833 12.375 120 10 123.167 7.625 120ZM17.625 120 20 116.833 22.375 120 20 123.167 17.625 120ZM27.625 120 30 116.833 32.375 120 30 123.167 27.625 120ZM37.625 120 40 116.833 42.375 120 40 123.167 37.625 120ZM47.625 120 50 116.833 52.375 120 50 123.167 47.625 120ZM57.625 120 60 116.833 62.375 120 60 123.167 57.625 120ZM67.625 120 70 116.833 72.375 120 70 123.167 67.625 120ZM77.625 120 80 116.833 82.375 120 80 123.167 77.625 120ZM7.625 160 10 156.833 12.375 160 10 163.167 7.625 160ZM17.625 160 20 156.833 22.375 160 20 163.167 17.625 160ZM27.625 160 30 156.833 32.375 160 30 163.167 27.625 160ZM37.625 160 40 156.833 42.375 160 40 163.167 37.625 160ZM47.625 160 50 156.833 52.375 160 50 163.167 47.625 160ZM57.625 160 60 156.833 62.375 160 60 163.167 57.625 160ZM67.625 160 70 156.833 72.375 160 70 163.167 67.625 160ZM77.625 160 80 156.833 82.375 160 80 163.167 77.625 160Z"/>
  <path stroke="#00F" d="M32.191 92.5h-4.382L30 88.118l2.191 4.382Z"/>
  <path stroke="#0F0" d="M17.625 110 20 106.833 22.375 110 20 113.167 17.625 110Z"/>
  <path stroke="#00F" d="M12.191 112.5H7.80902L10 108.118l2.191 4.382Z"/>
  <path stroke="#0F0" d="M37.625 110 40 106.833 42.375 110 40 113.167 37.625 110Z"/>
  <path stroke="#00F" d="M32.191 112.5h-4.382L30 108.118l2.191 4.382Z"/>
  <path stroke="#0F0" d="M57.625 110 60 106.833 62.375 110 60 113.167 57.625 110Z"/>
  <path stroke="#00F" d="M52.191 112.5h-4.382L50 108.118l2.191 4.382Z"/>
  <path stroke="#0F0" d="M77.625 110 80 106.833 82.375 110 80 113.167 77.625 110Z"/>
  <path stroke="#00F" d="M72.191 112.5h-4.382L70 108.118l2.191 4.382Z"/>
  <path stroke="#0F0" d="M17.625 150 20 146.833 22.375 150 20 153.167 17.625 150Z"/>
  <path stroke="#00F" d="M12.191 152.5H7.80902L10 148.118l2.191 4.382Z"/>
  <path stroke="#0F0" d="M37.625 150 40 146.833 42.375 150 40 153.167 37.625 150Z"/>
  <path stroke="#00F" d="M32.191 152.5h-4.382L30 148.118l2.191 4.382Z"/>
  <path stroke="#0F0" d="M57.625 150 60 146.833 62.375 150 60 153.167 57.625 150Z"/>
  <path stroke="#00F" d="M52.191 152.5h-4.382L50 148.118l2.191 4.382Z"/>
  <path stroke="#0F0" d="M77.625 150 80 146.833 82.375 150 80 153.167 77.625 150Z"/>
  <path stroke="#00F" d="M72.191 152.5h-4.382L70 148.118l2.191 4.382Z"/>
  <path stroke="#0F0" d="M57.625 90 60 86.8333 62.375 90 60 93.1667 57.625 90ZM77.625 90 80 86.8333 82.375 90 80 93.1667 77.625 90Z"/>
  <path stroke="#00F" d="M72.191 92.5h-4.382L70 88.118l2.191 4.382Z"/>
  <circle cx="50" cy="90" r="2.5" stroke="red"/>
  <path stroke="#0F0" d="M57.625 90 60 86.8333 62.375 90 60 93.1667 57.625 90ZM77.625 90 80 86.8333 82.375 90 80 93.1667 77.625 90Z"/>
  <path stroke="#00F" d="M72.191 92.5h-4.382L70 88.118l2.191 4.382Z"/>
  <circle cx="10" cy="130" r="2.5" stroke="red"/>
  <path stroke="#0F0" d="M17.625 130 20 126.833 22.375 130 20 133.167 17.625 130ZM37.625 130 40 126.833 42.375 130 40 133.167 37.625 130Z"/>
  <path stroke="#00F" d="M32.191 132.5h-4.382L30 128.118l2.191 4.382Z"/>
  <circle cx="50" cy="130" r="2.5" stroke="red"/>
  <path stroke="#00F" d="M72.191 132.5h-4.382L70 128.118l2.191 4.382Z"/>
  <path stroke="#0F0" d="M57.625 130 60 126.833 62.375 130 60 133.167 57.625 130ZM77.625 130 80 126.833 82.375 130 80 133.167 77.625 130Z"/>
  <circle cx="90" cy="10" r="3" fill="red"/>
  <circle cx="130" cy="10" r="2.5" stroke="red"/>
  <path stroke="#0F0" d="M97.625 10 100 6.83333 102.375 10 100 13.1667 97.625 10ZM117.625 10 120 6.83333 122.375 10 120 13.1667 117.625 10ZM87.625 20 90 16.8333 92.375 20 90 23.1667 87.625 20ZM97.625 20 100 16.8333 102.375 20 100 23.1667 97.625 20ZM107.625 20 110 16.8333 112.375 20 110 23.1667 107.625 20ZM117.625 20 120 16.8333 122.375 20 120 23.1667 117.625 20ZM127.625 20 130 16.8333 132.375 20 130 23.1667 127.625 20ZM137.625 20 140 16.8333 142.375 20 140 23.1667 137.625 20ZM147.625 20 150 16.8333 152.375 20 150 23.1667 147.625 20ZM157.625 20 160 16.8333 162.375 20 160 23.1667 157.625 20ZM87.625 60 90 56.8333 92.375 60 90 63.1667 87.625 60ZM97.625 60 100 56.8333 102.375 60 100 63.1667 97.625 60ZM107.625 60 110 56.8333 112.375 60 110 63.1667 107.625 60ZM117.625 60 120 56.8333 122.375 60 120 63.1667 117.625 60ZM127.625 60 130 56.8333 132.375 60 130 63.1667 127.625 60ZM137.625 60 140 56.8333 142.375 60 140 63.1667 137.625 60ZM147.625 60 150 56.8333 152.375 60 150 63.1667 147.625 60ZM157.625 60 160 56.8333 162.375 60 160 63.1667 157.625 60ZM87.625 40 90 36.8333 92.375 40 90 43.1667 87.625 40ZM97.625 40 100 36.8333 102.375 40 100 43.1667 97.625 40ZM107.625 40 110 36.8333 112.375 40 110 43.1667 107.625 40ZM117.625 40 120 36.8333 122.375 40 120 43.1667 117.625 40ZM127.625 40 130 36.8333 132.375 40 130 43.1667 127.625 40ZM137.625 40 140 36.8333 142.375 40 140 43.1667 137.625 40ZM147.625 40 150 36.8333 152.375 40 150 43.1667 147.625 40ZM157.625 40 160 36.8333 162.375 40 160 43.1667 157.625 40ZM87.625 80 90 76.8333 92.375 80 90 83.1667 87.625 80ZM97.625 80 100 76.8333 102.375 80 100 83.1667 97.625 80ZM107.625 80 110 76.8333 112.375 80 110 83.1667 107.625 80ZM117.625 80 120 76.8333 122.375 80 120 83.1667 117.625 80ZM127.625 80 130 76.8333 132.375 80 130 83.1667 127.625 80ZM137.625 80 140 76.8333 142.375 80 140 83.1667 137.625 80ZM147.625 80 150 76.8333 152.375 80 150 83.1667 147.625 80ZM157.625 80 160 76.8333 162.375 80 160 83.1667 157.625 80Z"/>
  <path stroke="#00F" d="M112.191 12.5h-4.382L110 8.11803 112.191 12.5Z"/>
  <path stroke="#0F0" d="M97.625 30 100 26.8333 102.375 30 100 33.1667 97.625 30Z"/>
  <path stroke="#00F" d="M92.191 32.5h-4.382L90 28.118l2.191 4.382Z"/>
  <path stroke="#0F0" d="M117.625 30 120 26.8333 122.375 30 120 33.1667 117.625 30Z"/>
  <path stroke="#00F" d="M112.191 32.5h-4.382L110 28.118l2.191 4.382Z"/>
  <path stroke="#0F0" d="M137.625 30 140 26.8333 142.375 30 140 33.1667 137.625 30Z"/>
  <path stroke="#00F" d="M132.191 32.5h-4.382L130 28.118l2.191 4.382Z"/>
  <path stroke="#0F0" d="M157.625 30 160 26.8333 162.375 30 160 33.1667 157.625 30Z"/>
  <path stroke="#00F" d="M152.191 32.5h-4.382L150 28.118l2.191 4.382Z"/>
  <path stroke="#0F0" d="M97.625 70 100 66.8333 102.375 70 100 73.1667 97.625 70Z"/>
  <path stroke="#00F" d="M92.191 72.5h-4.382L90 68.118l2.191 4.382Z"/>
  <path stroke="#0F0" d="M117.625 70 120 66.8333 122.375 70 120 73.1667 117.625 70Z"/>
  <path stroke="#00F" d="M112.191 72.5h-4.382L110 68.118l2.191 4.382Z"/>
  <path stroke="#0F0" d="M137.625 70 140 66.8333 142.375 70 140 73.1667 137.625 70Z"/>
  <path stroke="#00F" d="M132.191 72.5h-4.382L130 68.118l2.191 4.382Z"/>
  <path stroke="#0F0" d="M157.625 70 160 66.8333 162.375 70 160 73.1667 157.625 70Z"/>
  <path stroke="#00F" d="M152.191 72.5h-4.382L150 68.118l2.191 4.382Z"/>
  <path stroke="#0F0" d="M137.625 10 140 6.83333 142.375 10 140 13.1667 137.625 10ZM157.625 10 160 6.83333 162.375 10 160 13.1667 157.625 10Z"/>
  <path stroke="#00F" d="M152.191 12.5h-4.382L150 8.11803 152.191 12.5Z"/>
  <circle cx="130" cy="10" r="2.5" stroke="red"/>
  <path stroke="#0F0" d="M137.625 10 140 6.83333 142.375 10 140 13.1667 137.625 10ZM157.625 10 160 6.83333 162.375 10 160 13.1667 157.625 10Z"/>
  <path stroke="#00F" d="M152.191 12.5h-4.382L150 8.11803 152.191 12.5Z"/>
  <circle cx="90" cy="50" r="2.5" stroke="red"/>
  <path stroke="#0F0" d="M97.625 50 100 46.8333 102.375 50 100 53.1667 97.625 50ZM117.625 50 120 46.8333 122.375 50 120 53.1667 117.625 50Z"/>
  <path stroke="#00F" d="M112.191 52.5h-4.382L110 48.118l2.191 4.382Z"/>
  <circle cx="130" cy="50" r="2.5" stroke="red"/>
  <path stroke="#00F" d="M152.191 52.5h-4.382L150 48.118l2.191 4.382Z"/>
  <path stroke="#0F0" d="M137.625 50 140 46.8333 142.375 50 140 53.1667 137.625 50ZM157.625 50 160 46.8333 162.375 50 160 53.1667 157.625 50Z"/>
  <circle cx="90" cy="90" r="3" fill="red"/>
  <circle cx="130" cy="90" r="2.5" stroke="red"/>
  <path stroke="#0F0" d="M97.625 90 100 86.8333 102.375 90 100 93.1667 97.625 90ZM117.625 90 120 86.8333 122.375 90 120 93.1667 117.625 90ZM87.625 100 90 96.8333 92.375 100 90 103.167 87.625 100ZM97.625 100 100 96.8333 102.375 100 100 103.167 97.625 100ZM107.625 100 110 96.8333 112.375 100 110 103.167 107.625 100ZM117.625 100 120 96.8333 122.375 100 120 103.167 117.625 100ZM127.625 100 130 96.8333 132.375 100 130 103.167 127.625 100ZM137.625 100 140 96.8333 142.375 100 140 103.167 137.625 100ZM147.625 100 150 96.8333 152.375 100 150 103.167 147.625 100ZM157.625 100 160 96.8333 162.375 100 160 103.167 157.625 100ZM87.625 140 90 136.833 92.375 140 90 143.167 87.625 140ZM97.625 140l2.375-3.167 2.375 3.167-2.375 3.167L97.625 140ZM107.625 140l2.375-3.167 2.375 3.167-2.375 3.167-2.375-3.167ZM117.625 140l2.375-3.167 2.375 3.167-2.375 3.167-2.375-3.167ZM127.625 140l2.375-3.167 2.375 3.167-2.375 3.167-2.375-3.167ZM137.625 140l2.375-3.167 2.375 3.167-2.375 3.167-2.375-3.167ZM147.625 140l2.375-3.167 2.375 3.167-2.375 3.167-2.375-3.167ZM157.625 140l2.375-3.167 2.375 3.167-2.375 3.167-2.375-3.167ZM87.625 120 90 116.833 92.375 120 90 123.167 87.625 120ZM97.625 120l2.375-3.167 2.375 3.167-2.375 3.167L97.625 120ZM107.625 120l2.375-3.167 2.375 3.167-2.375 3.167-2.375-3.167ZM117.625 120l2.375-3.167 2.375 3.167-2.375 3.167-2.375-3.167ZM127.625 120l2.375-3.167 2.375 3.167-2.375 3.167-2.375-3.167ZM137.625 120l2.375-3.167 2.375 3.167-2.375 3.167-2.375-3.167ZM147.625 120l2.375-3.167 2.375 3.167-2.375 3.167-2.375-3.167ZM157.625 120l2.375-3.167 2.375 3.167-2.375 3.167-2.375-3.167ZM87.625 160 90 156.833 92.375 160 90 163.167 87.625 160ZM97.625 160l2.375-3.167 2.375 3.167-2.375 3.167L97.625 160ZM107.625 160l2.375-3.167 2.375 3.167-2.375 3.167-2.375-3.167ZM117.625 160l2.375-3.167 2.375 3.167-2.375 3.167-2.375-3.167ZM127.625 160l2.375-3.167 2.375 3.167-2.375 3.167-2.375-3.167ZM137.625 160l2.375-3.167 2.375 3.167-2.375 3.167-2.375-3.167ZM147.625 160l2.375-3.167 2.375 3.167-2.375 3.167-2.375-3.167ZM157.625 160l2.375-3.167 2.375 3.167-2.375 3.167-2.375-3.167Z"/>
  <path stroke="#00F" d="M112.191 92.5h-4.382L110 88.118l2.191 4.382Z"/>
  <path stroke="#0F0" d="m97.625 110 2.375-3.167 2.375 3.167-2.375 3.167L97.625 110Z"/>
  <path stroke="#00F" d="M92.191 112.5h-4.382L90 108.118l2.191 4.382Z"/>
  <path stroke="#0F0" d="m117.625 110 2.375-3.167 2.375 3.167-2.375 3.167-2.375-3.167Z"/>
  <path stroke="#00F" d="M112.191 112.5h-4.382l2.191-4.382 2.191 4.382Z"/>
  <path stroke="#0F0" d="m137.625 110 2.375-3.167 2.375 3.167-2.375 3.167-2.375-3.167Z"/>
  <path stroke="#00F" d="M132.191 112.5h-4.382l2.191-4.382 2.191 4.382Z"/>
  <path stroke="#0F0" d="m157.625 110 2.375-3.167 2.375 3.167-2.375 3.167-2.375-3.167Z"/>
  <path stroke="#00F" d="M152.191 112.5h-4.382l2.191-4.382 2.191 4.382Z"/>
  <path stroke="#0F0" d="m97.625 150 2.375-3.167 2.375 3.167-2.375 3.167L97.625 150Z"/>
  <path stroke="#00F" d="M92.191 152.5h-4.382L90 148.118l2.191 4.382Z"/>
  <path stroke="#0F0" d="m117.625 150 2.375-3.167 2.375 3.167-2.375 3.167-2.375-3.167Z"/>
  <path stroke="#00F" d="M112.191 152.5h-4.382l2.191-4.382 2.191 4.382Z"/>
  <path stroke="#0F0" d="m137.625 150 2.375-3.167 2.375 3.167-2.375 3.167-2.375-3.167Z"/>
  <path stroke="#00F" d="M132.191 152.5h-4.382l2.191-4.382 2.191 4.382Z"/>
  <path stroke="#0F0" d="m157.625 150 2.375-3.167 2.375 3.167-2.375 3.167-2.375-3.167Z"/>
  <path stroke="#00F" d="M152.191 152.5h-4.382l2.191-4.382 2.191 4.382Z"/>
  <path stroke="#0F0" d="M137.625 90 140 86.8333 142.375 90 140 93.1667 137.625 90ZM157.625 90 160 86.8333 162.375 90 160 93.1667 157.625 90Z"/>
  <path stroke="#00F" d="M152.191 92.5h-4.382L150 88.118l2.191 4.382Z"/>
  <circle cx="130" cy="90" r="2.5" stroke="red"/>
  <path stroke="#0F0" d="M137.625 90 140 86.8333 142.375 90 140 93.1667 137.625 90ZM157.625 90 160 86.8333 162.375 90 160 93.1667 157.625 90Z"/>
  <path stroke="#00F" d="M152.191 92.5h-4.382L150 88.118l2.191 4.382Z"/>
  <circle cx="90" cy="130" r="2.5" stroke="red"/>
  <path stroke="#0F0" d="m97.625 130 2.375-3.167 2.375 3.167-2.375 3.167L97.625 130ZM117.625 130l2.375-3.167 2.375 3.167-2.375 3.167-2.375-3.167Z"/>
  <path stroke="#00F" d="M112.191 132.5h-4.382l2.191-4.382 2.191 4.382Z"/>
  <circle cx="130" cy="130" r="2.5" stroke="red"/>
  <path stroke="#00F" d="M152.191 132.5h-4.382l2.191-4.382 2.191 4.382Z"/>
  <path stroke="#0F0" d="m137.625 130 2.375-3.167 2.375 3.167-2.375 3.167-2.375-3.167ZM157.625 130l2.375-3.167 2.375 3.167-2.375 3.167-2.375-3.167ZM192.625 115l2.375-3.167 2.375 3.167-2.375 3.167-2.375-3.167Z"/>
  <path stroke="#00F" d="M197.191 97.5h-4.382L195 93.118l2.191 4.382Z"/>
  <circle cx="195" cy="75" r="2.5" stroke="red"/>
  <circle cx="195" cy="55" r="3" fill="red"/>
  <text xml:space="preserve" fill="#000" font-family="Inter" font-size="8" font-weight="600" letter-spacing="0em" style="white-space:pre"><tspan x="205" y="57.9091">Full-pel</tspan></text>
  <text xml:space="preserve" fill="#000" font-family="Inter" font-size="8" font-weight="600" letter-spacing="0em" style="white-space:pre"><tspan x="205" y="77.9091">Half-pel</tspan></text>
  <text xml:space="preserve" fill="#000" font-family="Inter" font-size="8" font-weight="600" letter-spacing="0em" style="white-space:pre"><tspan x="205" y="97.9091">Quarter-pel</tspan></text>
  <text xml:space="preserve" fill="#000" font-family="Inter" font-size="8" font-weight="600" letter-spacing="0em" style="white-space:pre"><tspan x="205" y="117.909">Eighth-pel</tspan></text>
</svg>
