<svg xmlns="http://www.w3.org/2000/svg" width="170" height="90" fill="none">
  <defs>
    <style>
      @font-face{font-family:&quot;Inter&quot;;src:url(https://fonts.gstatic.com/s/inter/v18/UcCO3FwrK3iLTeHuS_nVMrMxCp50SjIw2boKoduKmMEVuLyfAZ9hiA.woff2)format(&quot;woff2&quot;)}
    </style>
  </defs>
  <path fill="#fff" d="M1 1h168v88H1z"/>
  <path stroke="#000" stroke-width="2" d="M1 1h168v88H1z"/>
  <circle cx="10" cy="10" r="3" fill="red"/>
  <circle cx="50" cy="10" r="2.5" stroke="red"/>
  <path stroke="#0F0" d="M17.625 10 20 6.83333 22.375 10 20 13.1667 17.625 10ZM37.625 10 40 6.83333 42.375 10 40 13.1667 37.625 10ZM7.625 20 10 16.8333 12.375 20 10 23.1667 7.625 20ZM17.625 20 20 16.8333 22.375 20 20 23.1667 17.625 20ZM27.625 20 30 16.8333 32.375 20 30 23.1667 27.625 20ZM37.625 20 40 16.8333 42.375 20 40 23.1667 37.625 20ZM47.625 20 50 16.8333 52.375 20 50 23.1667 47.625 20ZM57.625 20 60 16.8333 62.375 20 60 23.1667 57.625 20ZM67.625 20 70 16.8333 72.375 20 70 23.1667 67.625 20ZM77.625 20 80 16.8333 82.375 20 80 23.1667 77.625 20ZM7.625 60 10 56.8333 12.375 60 10 63.1667 7.625 60ZM17.625 60 20 56.8333 22.375 60 20 63.1667 17.625 60ZM27.625 60 30 56.8333 32.375 60 30 63.1667 27.625 60ZM37.625 60 40 56.8333 42.375 60 40 63.1667 37.625 60ZM47.625 60 50 56.8333 52.375 60 50 63.1667 47.625 60ZM57.625 60 60 56.8333 62.375 60 60 63.1667 57.625 60ZM67.625 60 70 56.8333 72.375 60 70 63.1667 67.625 60ZM77.625 60 80 56.8333 82.375 60 80 63.1667 77.625 60ZM7.625 40 10 36.8333 12.375 40 10 43.1667 7.625 40ZM17.625 40 20 36.8333 22.375 40 20 43.1667 17.625 40ZM27.625 40 30 36.8333 32.375 40 30 43.1667 27.625 40ZM37.625 40 40 36.8333 42.375 40 40 43.1667 37.625 40ZM47.625 40 50 36.8333 52.375 40 50 43.1667 47.625 40ZM57.625 40 60 36.8333 62.375 40 60 43.1667 57.625 40ZM67.625 40 70 36.8333 72.375 40 70 43.1667 67.625 40ZM77.625 40 80 36.8333 82.375 40 80 43.1667 77.625 40ZM7.625 80 10 76.8333 12.375 80 10 83.1667 7.625 80ZM17.625 80 20 76.8333 22.375 80 20 83.1667 17.625 80ZM27.625 80 30 76.8333 32.375 80 30 83.1667 27.625 80ZM37.625 80 40 76.8333 42.375 80 40 83.1667 37.625 80ZM47.625 80 50 76.8333 52.375 80 50 83.1667 47.625 80ZM57.625 80 60 76.8333 62.375 80 60 83.1667 57.625 80ZM67.625 80 70 76.8333 72.375 80 70 83.1667 67.625 80ZM77.625 80 80 76.8333 82.375 80 80 83.1667 77.625 80Z"/>
  <path stroke="#00F" d="M32.191 12.5h-4.382L30 8.11803 32.191 12.5Z"/>
  <path stroke="#0F0" d="M17.625 30 20 26.8333 22.375 30 20 33.1667 17.625 30Z"/>
  <path stroke="#00F" d="M12.191 32.5H7.80902L10 28.118l2.191 4.382Z"/>
  <path stroke="#0F0" d="M37.625 30 40 26.8333 42.375 30 40 33.1667 37.625 30Z"/>
  <path stroke="#00F" d="M32.191 32.5h-4.382L30 28.118l2.191 4.382Z"/>
  <path stroke="#0F0" d="M57.625 30 60 26.8333 62.375 30 60 33.1667 57.625 30Z"/>
  <path stroke="#00F" d="M52.191 32.5h-4.382L50 28.118l2.191 4.382Z"/>
  <path stroke="#0F0" d="M77.625 30 80 26.8333 82.375 30 80 33.1667 77.625 30Z"/>
  <path stroke="#00F" d="M72.191 32.5h-4.382L70 28.118l2.191 4.382Z"/>
  <path stroke="#0F0" d="M17.625 70 20 66.8333 22.375 70 20 73.1667 17.625 70Z"/>
  <path stroke="#00F" d="M12.191 72.5H7.80902L10 68.118l2.191 4.382Z"/>
  <path stroke="#0F0" d="M37.625 70 40 66.8333 42.375 70 40 73.1667 37.625 70Z"/>
  <path stroke="#00F" d="M32.191 72.5h-4.382L30 68.118l2.191 4.382Z"/>
  <path stroke="#0F0" d="M57.625 70 60 66.8333 62.375 70 60 73.1667 57.625 70Z"/>
  <path stroke="#00F" d="M52.191 72.5h-4.382L50 68.118l2.191 4.382Z"/>
  <path stroke="#0F0" d="M77.625 70 80 66.8333 82.375 70 80 73.1667 77.625 70Z"/>
  <path stroke="#00F" d="M72.191 72.5h-4.382L70 68.118l2.191 4.382Z"/>
  <path stroke="#0F0" d="M57.625 10 60 6.83333 62.375 10 60 13.1667 57.625 10ZM77.625 10 80 6.83333 82.375 10 80 13.1667 77.625 10Z"/>
  <path stroke="#00F" d="M72.191 12.5h-4.382L70 8.11803 72.191 12.5Z"/>
  <circle cx="50" cy="10" r="2.5" stroke="red"/>
  <path stroke="#0F0" d="M57.625 10 60 6.83333 62.375 10 60 13.1667 57.625 10ZM77.625 10 80 6.83333 82.375 10 80 13.1667 77.625 10Z"/>
  <path stroke="#00F" d="M72.191 12.5h-4.382L70 8.11803 72.191 12.5Z"/>
  <circle cx="10" cy="50" r="2.5" stroke="red"/>
  <path stroke="#0F0" d="M17.625 50 20 46.8333 22.375 50 20 53.1667 17.625 50ZM37.625 50 40 46.8333 42.375 50 40 53.1667 37.625 50Z"/>
  <path stroke="#00F" d="M32.191 52.5h-4.382L30 48.118l2.191 4.382Z"/>
  <circle cx="50" cy="50" r="2.5" stroke="red"/>
  <path stroke="#00F" d="M72.191 52.5h-4.382L70 48.118l2.191 4.382Z"/>
  <path stroke="#0F0" d="M57.625 50 60 46.8333 62.375 50 60 53.1667 57.625 50ZM77.625 50 80 46.8333 82.375 50 80 53.1667 77.625 50ZM102.625 75 105 71.8333 107.375 75 105 78.1667 102.625 75Z"/>
  <path stroke="#00F" d="M107.191 57.5h-4.382L105 53.118l2.191 4.382Z"/>
  <circle cx="105" cy="35" r="2.5" stroke="red"/>
  <circle cx="105" cy="15" r="3" fill="red"/>
  <text xml:space="preserve" fill="#000" font-family="Inter" font-size="8" font-weight="600" letter-spacing="0em" style="white-space:pre"><tspan x="115" y="17.9091">Full-pel</tspan></text>
  <text xml:space="preserve" fill="#000" font-family="Inter" font-size="8" font-weight="600" letter-spacing="0em" style="white-space:pre"><tspan x="115" y="37.9091">Half-pel</tspan></text>
  <text xml:space="preserve" fill="#000" font-family="Inter" font-size="8" font-weight="600" letter-spacing="0em" style="white-space:pre"><tspan x="115" y="57.9091">Quarter-pel</tspan></text>
  <text xml:space="preserve" fill="#000" font-family="Inter" font-size="8" font-weight="600" letter-spacing="0em" style="white-space:pre"><tspan x="115" y="77.9091">Eighth-pel</tspan></text>
</svg>
