<svg xmlns="http://www.w3.org/2000/svg" width="1341" height="305" fill="none">
  <g clip-path="url(#a)">
    <path fill="#fff" d="M0 0h1341v305H0z"/>
    <path fill="#003972" d="M91 149h154v68H91v-68Zm252 0h154v68H343v-68Zm206 0h154v68H549v-68ZM343 43h154v68H343V43Zm616 0h154v68H959V43ZM295 305c8.284 0 15-6.716 15-15 0-8.284-6.716-15-15-15-8.284 0-15 6.716-15 15 0 8.284 6.716 15 15 15Z"/>
    <path fill="#fff" d="M288 288h14v4h-14v-4Z"/>
    <path stroke="#003972" stroke-width="5" d="m274.41 290-5.91 2.955v-5.91l5.91 2.955ZM295 269.41l-2.955-5.91h5.91L295 269.41Zm333.955-40.91h-5.91l2.955-5.91 2.955 5.91ZM337.41 183l-5.91 2.955v-5.91l5.91 2.955Zm200.09 2.955v-5.91l5.91 2.955-5.91 2.955Zm410-106v-5.91L953.41 77l-5.91 2.955Zm311 0v-5.91l5.91 2.955-5.91 2.955ZM85.41 182l-5.91 2.955v-5.91L85.41 182Z"/>
    <path stroke="#003972" stroke-width="4" d="M1113 77h143M309 290h317v-59m-381-48h50m0 0h34m-34 0V76h34m-34 107v78M0 182h45m0 0h32m-32 0v108h221"/>
    <path stroke="#003972" stroke-width="5" d="m337.41 76-5.91 2.955v-5.91L337.41 76Z"/>
    <path stroke="#003972" stroke-width="4" d="M497 183h38M497 77h347m0 0h101m-101 0v106H703"/>
    <path fill="#003972" d="M724.388 194.455V209h-2.344l-6.854-9.908h-.12V209h-2.635v-14.545h2.358l6.846 9.914h.128v-9.914h2.621Zm7.516 14.758c-1.066 0-1.989-.234-2.77-.703-.781-.469-1.387-1.125-1.818-1.967-.431-.842-.64-1.828-.64-2.955s.214-2.114.64-2.962c.405-.818 1.036-1.504 1.818-1.974.781-.469 1.704-.703 2.77-.703s1.988.234 2.77.703 1.385 1.127 1.811 1.974c.426.847.646 1.835.646 2.962 0 1.127-.215 2.112-.646 2.955-.431.843-1.03 1.498-1.811 1.967-.781.469-1.705.703-2.77.703Zm.014-2.06c.578 0 1.061-.158 1.449-.475.388-.317.677-.753.866-1.293.194-.54.292-1.141.292-1.804s-.098-1.271-.292-1.811c-.189-.545-.478-.978-.866-1.3-.388-.322-.871-.483-1.449-.483-.592 0-1.084.161-1.477.483-.393.322-.68.755-.874 1.3-.189.54-.284 1.143-.284 1.811 0 .668.095 1.264.284 1.804.189.54.485.971.874 1.293.389.322.885.475 1.477.475Zm7.395 1.847v-10.909h2.571V209h-2.571Zm1.293-12.457c-.407 0-.758-.135-1.051-.405-.294-.275-.441-.604-.441-.987-.002-.187.036-.372.112-.542.076-.171.188-.323.329-.446.293-.274.644-.412 1.051-.412.194-.004.386.03.567.101.18.071.345.176.484.311.141.123.253.275.329.446.076.17.114.355.111.542 0 .383-.146.712-.44.987-.289.27-.639.405-1.051.405Zm12.544 4.431-2.344.256c-.07-.244-.188-.471-.348-.668-.161-.208-.378-.376-.653-.504s-.611-.192-1.008-.192c-.536 0-.985.116-1.35.348-.365.232-.537.533-.533.902-.004.318.112.576.348.775.242.198.64.362 1.194.49l1.86.397c1.033.223 1.8.576 2.302 1.059s.762 1.115.767 1.896c-.005.687-.206 1.293-.604 1.818-.393.521-.94.928-1.641 1.222-.701.294-1.505.44-2.415.44-1.335 0-2.41-.279-3.224-.838-.814-.559-1.3-1.347-1.456-2.351l2.507-.241c.114.492.355.864.725 1.115s.85.376 1.441.376c.611 0 1.101-.125 1.471-.376.37-.251.561-.561.561-.931.003-.148-.029-.295-.092-.429-.062-.134-.155-.252-.271-.345-.236-.203-.606-.36-1.108-.469l-1.86-.39c-1.047-.218-1.821-.585-2.323-1.101-.502-.521-.75-1.179-.746-1.974-.004-.673.178-1.255.547-1.748.369-.493.893-.88 1.556-1.15.663-.27 1.437-.412 2.308-.412 1.278 0 2.285.272 3.018.817.739.544 1.196 1.28 1.371 2.208Zm7.184 8.239c-1.094 0-2.038-.227-2.834-.682-.79-.459-1.399-1.108-1.825-1.946-.426-.843-.639-1.835-.639-2.976 0-1.122.213-2.107.639-2.954.431-.852 1.032-1.515 1.804-1.989.772-.474 1.679-.717 2.72-.717.673 0 1.307.109 1.904.327.601.213 1.131.544 1.591.994.46.45.828 1.023 1.093 1.719.265.696.398 1.515.398 2.471v.789h-8.942v-1.733h6.478c.004-.458-.106-.909-.32-1.314-.208-.389-.5-.694-.874-.916-.374-.222-.8-.334-1.292-.334-.526 0-.987.128-1.385.383s-.708.583-.931.995c-.219.413-.333.874-.333 1.342v1.513c0 .634.116 1.179.348 1.633.232.454.556.796.973 1.037.417.241.904.355 1.463.355.374 0 .712-.052 1.015-.156.303-.109.566-.268.789-.476.223-.208.39-.466.504-.774l2.4.27c-.151.634-.44 1.188-.866 1.662-.421.469-.961.833-1.619 1.094-.658.255-1.411.383-2.259.383Zm11.987-.213v-10.909h2.457v1.854h.128c.228-.625.604-1.113 1.13-1.463.525-.356 1.152-.533 1.882-.533.738 0 1.361.18 1.868.54.511.355.871.84 1.079 1.456h.114c.241-.606.648-1.089 1.221-1.449.578-.365 1.262-.547 2.053-.547 1.004 0 1.823.317 2.457.952.634.635.952 1.56.952 2.777V209h-2.578v-6.925c0-.677-.18-1.172-.54-1.484-.36-.317-.8-.476-1.321-.476-.62 0-1.106.194-1.456.582-.35.388-.518.883-.518 1.499V209h-2.522v-7.031c0-.564-.17-1.014-.511-1.35-.341-.336-.777-.504-1.321-.504-.356-.003-.707.095-1.009.284-.303.185-.544.448-.724.789-.18.341-.27.729-.27 1.178V209h-2.571Zm22.708.213c-1.066 0-1.989-.234-2.77-.703-.781-.469-1.387-1.125-1.818-1.967-.431-.842-.64-1.828-.64-2.955s.214-2.114.64-2.962c.405-.818 1.036-1.504 1.818-1.974.781-.469 1.704-.703 2.77-.703s1.988.234 2.77.703 1.385 1.127 1.811 1.974c.426.847.646 1.835.646 2.962 0 1.127-.215 2.112-.646 2.955-.431.843-1.03 1.498-1.811 1.967-.781.469-1.705.703-2.77.703Zm.014-2.06c.578 0 1.061-.158 1.449-.475.388-.317.677-.753.866-1.293.194-.54.292-1.141.292-1.804s-.098-1.271-.292-1.811c-.189-.545-.478-.978-.866-1.3-.388-.322-.871-.483-1.449-.483-.592 0-1.084.161-1.477.483-.393.322-.68.755-.874 1.3-.189.54-.284 1.143-.284 1.811 0 .668.095 1.264.284 1.804.189.54.485.971.874 1.293.389.322.885.475 1.477.475Zm11.444 2.039c-.858 0-1.625-.22-2.302-.661-.677-.441-1.212-1.079-1.605-1.917-.393-.838-.589-1.856-.589-3.054 0-1.212.199-2.235.596-3.069.403-.838.945-1.47 1.627-1.896.682-.431 1.474-.655 2.28-.646.639 0 1.164.109 1.576.327.378.186.712.449.98.774.217.261.406.544.562.845h.106v-5.44h2.578V209h-2.528v-1.719h-.156c-.133.265-.325.547-.576.845-.251.298-.582.545-.994.753-.412.208-.93.313-1.555.313Zm.717-2.11c.544 0 1.008-.146 1.392-.44.384-.294.675-.713.873-1.243.198-.53.299-1.148.299-1.854 0-.706-.1-1.318-.299-1.839-.199-.521-.482-.926-.866-1.215-.379-.288-.845-.433-1.399-.433-.573 0-1.051.149-1.435.448-.384.299-.672.71-.866 1.235-.194.525-.291 1.127-.291 1.804 0 .682.097 1.291.291 1.826.194.535.49.949.873 1.257.389.303.864.454 1.428.454Zm12.661 2.131c-1.093 0-2.038-.227-2.833-.682-.795-.455-1.4-1.108-1.826-1.946-.426-.843-.639-1.835-.639-2.976 0-1.122.213-2.107.639-2.954.426-.847 1.033-1.515 1.804-1.989.771-.474 1.679-.717 2.72-.717.673 0 1.307.109 1.904.327.597.21 1.14.55 1.591.994.464.45.828 1.023 1.094 1.719.266.696.397 1.515.397 2.471v.789h-8.941v-1.733h6.477c-.005-.493-.111-.931-.32-1.314-.2-.381-.502-.698-.873-.916-.37-.223-.801-.334-1.293-.334-.526 0-.987.128-1.385.383s-.708.583-.93.995c-.219.413-.334.874-.334 1.342v1.513c0 .634.116 1.179.348 1.633.232.454.556.796.973 1.037.417.241.904.355 1.463.355.374 0 .713-.052 1.016-.156.303-.109.565-.268.788-.476.223-.208.391-.466.504-.774l2.401.27c-.152.634-.441 1.188-.867 1.662s-.961.833-1.619 1.094c-.658.255-1.411.383-2.259.383Zm9.597-14.758V209h-2.571v-14.545h2.571Zm-117.141 42.636v-15h2.528v1.804h.15c.132-.265.319-.547.561-.845.268-.325.602-.588.98-.774.412-.218.937-.327 1.576-.327.843 0 1.603.215 2.28.646.682.426 1.222 1.058 1.62 1.896.398.838.603 1.857.603 3.069 0 1.198-.196 2.216-.589 3.054-.393.838-.928 1.477-1.605 1.917-.677.44-1.444.661-2.301.661-.625 0-1.144-.104-1.556-.313-.412-.209-.743-.459-.994-.753-.221-.261-.413-.544-.575-.845h-.107v5.81h-2.571Zm2.521-9.546c0 .706.1 1.324.299 1.854.199.53.494.945.873 1.243.379.298.848.44 1.392.44.568 0 1.044-.151 1.428-.454.384-.303.672-.727.866-1.257.194-.53.299-1.144.299-1.826 0-.677-.097-1.278-.292-1.804-.195-.526-.483-.937-.866-1.235-.383-.298-.862-.448-1.435-.448-.549 0-1.015.145-1.399.433-.384.288-.675.694-.873 1.215-.198.521-.292 1.134-.292 1.839Zm13.118 5.675c-.691 0-1.314-.123-1.868-.369-.532-.237-.986-.621-1.306-1.108-.318-.488-.476-1.089-.476-1.804 0-.616.113-1.125.341-1.527.228-.402.537-.724.93-.966s.836-.424 1.328-.547c.497-.128 1.011-.22 1.541-.277l1.556-.177c.397-.057.686-.142.866-.256.185-.118.277-.301.277-.547v-.043c0-.535-.158-.949-.476-1.242-.318-.293-.774-.441-1.37-.441-.63 0-1.13.138-1.499.412-.369.274-.611.599-.739.973l-2.4-.341c.189-.663.502-1.217.937-1.662.435-.445.969-.786 1.598-1.008.63-.228 1.326-.341 2.088-.341.526 0 1.049.061 1.57.185.521.124.997.326 1.428.61.431.284.776.661 1.036 1.144.266.483.398 1.086.398 1.811V233h-2.471v-1.499h-.086c-.156.303-.376.588-.66.853-.308.277-.668.492-1.058.632-.422.156-.917.234-1.485.234Zm.668-1.889c.516 0 .963-.102 1.342-.305.379-.209.67-.483.874-.824.206-.335.315-.721.312-1.115v-1.286c-.08.066-.218.128-.412.185-.21.062-.423.111-.639.149l-.703.114-.604.085c-.383.052-.727.137-1.03.255-.303.118-.542.285-.717.498-.175.213-.263.478-.263.809 0 .474.173.831.519 1.073.346.242.786.362 1.321.362Zm7.677 1.669v-10.909h2.493v1.818h.114c.199-.63.54-1.115 1.023-1.456.487-.346 1.072-.527 1.669-.518l.476.021c.179.009.329.026.447.05v2.365c-.169-.05-.342-.083-.518-.1-.224-.032-.449-.049-.675-.049-.469 0-.89.101-1.264.305s-.661.476-.874.831c-.213.355-.32.765-.32 1.229V233h-2.571Zm10.874.22c-.691 0-1.314-.123-1.868-.369s-.985-.62-1.307-1.108c-.322-.488-.476-1.089-.476-1.804 0-.616.114-1.125.341-1.527.227-.402.538-.724.931-.966s.835-.424 1.328-.547c.497-.128 1.011-.22 1.541-.277l1.555-.177c.398-.057.687-.142.867-.256.18-.114.277-.301.277-.547v-.043c0-.535-.159-.949-.476-1.242-.317-.293-.774-.441-1.371-.441-.629 0-1.129.138-1.498.412-.369.274-.611.599-.739.973l-2.4-.341c.189-.663.501-1.217.937-1.662.446-.457.994-.802 1.598-1.008.63-.228 1.326-.341 2.088-.341.526 0 1.049.061 1.57.185.508.117.991.324 1.427.61.438.287.795.681 1.037 1.144.265.483.398 1.086.398 1.811V233h-2.472v-1.499h-.085c-.156.303-.376.588-.66.853-.28.26-.633.471-1.059.632-.426.161-.916.234-1.484.234Zm.668-1.889c.516 0 .963-.102 1.342-.305.379-.209.67-.483.873-.824.209-.341.313-.713.313-1.115v-1.286c-.08.066-.218.128-.412.185-.21.062-.423.111-.639.149l-.703.114-.604.085c-.383.052-.727.137-1.03.255-.303.118-.542.285-.717.498-.175.213-.263.478-.263.809 0 .474.173.831.519 1.073.346.242.786.362 1.321.362Zm7.677 1.669v-10.909h2.458v1.854h.127c.228-.625.604-1.113 1.13-1.463.525-.356 1.153-.533 1.882-.533.738 0 1.361.18 1.868.54.511.355.871.84 1.079 1.456h.114c.241-.606.648-1.089 1.221-1.449.578-.365 1.262-.547 2.053-.547 1.004 0 1.823.317 2.457.952.634.635.952 1.56.952 2.777V233h-2.578v-6.925c0-.677-.18-1.172-.54-1.484-.36-.317-.8-.476-1.321-.476-.62 0-1.105.194-1.456.582-.345.384-.518.883-.518 1.499V233h-2.522v-7.031c0-.564-.17-1.014-.511-1.35-.341-.336-.776-.504-1.321-.504-.369 0-.705.095-1.009.284-.304.189-.544.448-.724.789-.18.341-.27.729-.27 1.178V233h-2.571Zm22.779.213c-1.094 0-2.038-.227-2.834-.682-.796-.455-1.399-1.108-1.825-1.946-.426-.843-.639-1.835-.639-2.976 0-1.122.213-2.107.639-2.954.426-.847 1.032-1.515 1.804-1.989.772-.474 1.678-.717 2.72-.717.649-.004 1.293.107 1.903.327.597.21 1.141.549 1.591.994.464.45.829 1.023 1.094 1.719.265.696.398 1.515.398 2.471v.789h-8.942v-1.733h6.477c-.004-.493-.111-.931-.319-1.314-.201-.38-.503-.698-.874-.916-.369-.223-.8-.334-1.293-.334-.525 0-.987.128-1.384.383-.397.255-.708.583-.931.995-.219.413-.334.874-.334 1.342v1.513c0 .634.116 1.179.348 1.633.232.454.557.796.973 1.037.416.241.905.355 1.463.355.374 0 .713-.052 1.016-.156.303-.109.566-.268.788-.476.222-.208.391-.466.505-.774l2.4.27c-.151.634-.44 1.188-.866 1.662s-.961.833-1.62 1.094c-.658.255-1.411.383-2.258.383Zm12.473-11.122v1.989h-6.271v-1.989h6.271Zm-4.723-2.614h2.571v10.242c0 .345.052.611.157.795.095.169.246.299.426.37.175.066.369.099.582.099.148.001.295-.011.44-.036l.313-.063.433 2.009c-.137.048-.334.1-.589.157-.255.057-.559.09-.924.099-.644.019-1.224-.078-1.74-.291-.516-.218-.925-.554-1.228-1.009-.303-.455-.445-1.022-.441-1.704v-10.668Zm11.586 13.736c-1.094 0-2.039-.227-2.834-.682-.795-.455-1.399-1.108-1.825-1.946-.426-.843-.639-1.835-.639-2.976 0-1.122.213-2.107.639-2.954.426-.847 1.032-1.515 1.804-1.989.772-.474 1.678-.717 2.72-.717.649-.004 1.293.107 1.903.327.597.21 1.141.549 1.591.994.464.45.829 1.023 1.094 1.719.265.696.398 1.515.398 2.471v.789h-8.942v-1.733h6.477c-.005-.493-.111-.931-.319-1.314-.201-.38-.503-.698-.874-.916-.369-.223-.8-.334-1.293-.334-.525 0-.987.128-1.385.383-.391.245-.712.588-.93.995-.219.413-.334.874-.334 1.342v1.513c0 .634.116 1.179.348 1.633.232.454.557.796.973 1.037.416.241.905.355 1.463.355.374 0 .713-.052 1.016-.156.303-.109.566-.268.788-.476.222-.208.391-.466.505-.774l2.4.27c-.151.634-.44 1.188-.866 1.662s-.961.833-1.62 1.094c-.658.255-1.411.383-2.258.383Zm7.026-.213v-10.909h2.493v1.818h.113c.199-.63.54-1.115 1.023-1.456.488-.346 1.044-.518 1.669-.518l.476.021c.18.009.329.026.447.05v2.365c-.109-.038-.281-.071-.518-.1-.224-.032-.449-.049-.675-.049-.469 0-.89.101-1.264.305-.362.192-.664.479-.874.831-.213.355-.319.765-.319 1.229V233h-2.571Zm16.552-8.026-2.344.256c-.07-.244-.188-.471-.348-.668-.161-.208-.379-.376-.654-.504s-.61-.192-1.008-.192c-.535 0-.985.116-1.35.348-.359.232-.537.533-.532.902-.005.318.111.576.348.775.237.199.639.362 1.193.49l1.861.397c1.032.223 1.799.576 2.301 1.059.507.483.762 1.115.767 1.896-.005.687-.206 1.293-.604 1.818-.398.525-.94.928-1.64 1.222-.7.294-1.506.44-2.415.44-1.335 0-2.41-.279-3.225-.838-.815-.559-1.299-1.347-1.455-2.351l2.507-.241c.113.492.355.864.724 1.115s.85.376 1.442.376c.611 0 1.101-.125 1.47-.376s.561-.561.561-.931c.003-.148-.028-.295-.091-.429s-.156-.252-.271-.345c-.237-.203-.606-.36-1.108-.469l-1.861-.39c-1.046-.218-1.82-.585-2.322-1.101-.502-.521-.751-1.179-.746-1.974-.005-.673.177-1.255.547-1.748.37-.493.892-.88 1.555-1.15.663-.27 1.437-.412 2.308-.412 1.279 0 2.285.272 3.019.817.734.545 1.195 1.28 1.371 2.208ZM6.07 126.455V141H3.435v-14.545H6.07Zm5.311 8.153V141H8.809v-10.909h2.457v1.854h.128c.251-.611.651-1.097 1.2-1.456.549-.359 1.238-.54 2.053-.54.753 0 1.409.161 1.967.483.558.322.999.788 1.307 1.399.308.611.466 1.352.462 2.223V141h-2.571v-6.548c0-.729-.189-1.3-.568-1.712-.379-.412-.893-.618-1.555-.618-.45 0-.85.1-1.2.298-.3484.197-.6322.491-.817.846-.194.369-.291.816-.291 1.342Zm9.617 10.483v-15h2.528v1.804h.149c.133-.265.32-.547.561-.845.241-.298.568-.561.98-.774.412-.218.938-.327 1.577-.327.843 0 1.603.215 2.28.646.682.426 1.222 1.058 1.619 1.896.397.838.604 1.857.604 3.069 0 1.198-.197 2.216-.59 3.054-.393.838-.928 1.477-1.605 1.917-.677.44-1.444.661-2.301.661-.625 0-1.143-.104-1.555-.313-.412-.209-.743-.459-.994-.753s-.438-.58-.575-.845h-.107v5.81h-2.571Zm2.521-9.546c0 .706.099 1.324.298 1.854.199.53.495.945.874 1.243.379.298.848.44 1.392.44.568 0 1.044-.151 1.428-.454.384-.303.672-.727.867-1.257.195-.53.298-1.144.298-1.826 0-.677-.097-1.278-.291-1.804-.194-.526-.483-.937-.866-1.235-.383-.298-.862-.448-1.435-.448-.549 0-1.016.145-1.399.433-.383.288-.675.694-.874 1.215-.199.521-.291 1.134-.291 1.839h-.001Zm16.932.867v-6.321h2.571V141h-2.493v-1.939h-.114c-.246.611-.651 1.11-1.215 1.499-.564.389-1.248.582-2.067.582-.715 0-1.347-.159-1.896-.476-.549-.317-.971-.788-1.278-1.399-.307-.611-.462-1.359-.462-2.23v-6.946h2.571v6.548c0 .691.189 1.241.568 1.648.379.407.876.611 1.491.611.379 0 .746-.093 1.101-.277.355-.184.646-.46.874-.824.228-.364.349-.831.349-1.385Zm10.662-6.321v1.989h-6.271v-1.989h6.271Zm-4.723-2.614h2.571v10.242c0 .345.052.611.156.795.104.184.251.303.426.37.1864.068.3836.101.582.099.1474.001.2947-.011.44-.036l.313-.063.433 2.009c-.137.048-.334.1-.59.157-.256.057-.559.09-.923.099-.644.019-1.224-.078-1.74-.291-.516-.218-.926-.554-1.229-1.009-.303-.455-.445-1.022-.44-1.704l.001-10.668ZM3.435 165v-14.545H8.89c1.117 0 2.055.208 2.813.625.7338.388 1.3349.986 1.726 1.718.393.725.589 1.549.589 2.472 0 .933-.197 1.761-.589 2.486-.392.725-.973 1.295-1.74 1.711-.767.416-1.712.618-2.834.618H5.239v-2.166h3.26c.653 0 1.188-.114 1.605-.341.417-.227.724-.54.923-.937.199-.397.305-.855.305-1.371s-.102-.971-.305-1.364c-.203-.393-.509-.698-.93-.916-.421-.218-.954-.334-1.612-.334H6.07V165H3.435Zm12.757 0v-10.909h2.571V165h-2.571Zm1.293-12.457c-.3896.007-.7666-.139-1.051-.405-.294-.275-.44-.604-.44-.987-.0025-.187.0355-.372.1115-.542.0759-.171.188-.323.3285-.446.294-.274.644-.412 1.051-.412.1937-.004.3863.03.5666.101.1804.071.345.176.4844.311.1405.123.2526.275.3285.446.076.17.114.355.1115.542 0 .383-.147.712-.44.987-.289.27-.639.405-1.051.405Zm8.681 12.67c-1.089 0-2.024-.239-2.805-.717-.781-.478-1.375-1.139-1.797-1.982-.422-.843-.625-1.823-.625-2.926 0-1.103.213-2.086.639-2.933.426-.847 1.027-1.515 1.804-1.989.777-.474 1.704-.717 2.77-.717.885 0 1.669.163 2.351.49.682.327 1.234.779 1.641 1.371.407.587.639 1.273.696 2.059h-2.457c-.099-.525-.336-.963-.71-1.314-.374-.351-.864-.532-1.484-.532-.526 0-.987.142-1.385.426-.398.279-.708.682-.93 1.207-.222.525-.327 1.156-.327 1.889 0 .744.109 1.383.327 1.918.218.535.523.94.916 1.229.398.284.864.426 1.399.426.379 0 .717-.071 1.016-.213.3011-.146.562-.362.76-.632.204-.275.343-.609.419-1.002h2.457c-.062.772-.289 1.456-.682 2.053-.393.592-.928 1.056-1.605 1.392-.677.331-1.473.497-2.386.497h-.002Zm12.232-11.122v1.989h-6.271v-1.989h6.271Zm-4.723-2.614h2.571v10.242c0 .345.052.611.156.795.104.184.251.303.426.37.1864.068.3836.101.582.099.1474.001.2947-.011.44-.036l.313-.063.433 2.009c-.137.048-.334.1-.59.157-.256.057-.559.09-.923.099-.644.019-1.224-.078-1.74-.291-.516-.218-.926-.554-1.229-1.009-.303-.455-.445-1.022-.44-1.704l.001-10.668Zm13.826 8.935v-6.321h2.571V165h-2.493v-1.939h-.114c-.246.611-.651 1.11-1.215 1.499-.564.389-1.248.582-2.067.582-.715 0-1.347-.159-1.896-.476-.549-.317-.971-.788-1.278-1.399-.307-.611-.462-1.359-.462-2.23v-6.946h2.571v6.548c0 .691.189 1.241.568 1.648.379.407.876.611 1.492.611.379 0 .746-.093 1.101-.277.355-.184.646-.46.874-.824.228-.364.348-.831.348-1.385ZM52.716 165v-10.909h2.493v1.818h.114c.199-.63.54-1.115 1.023-1.456.483-.341 1.044-.518 1.669-.518l.476.021c.15.006.2994.022.447.05v2.365c-.109-.038-.282-.071-.518-.1-.2236-.032-.4491-.049-.675-.049-.469 0-.89.101-1.264.305s-.661.476-.874.831c-.213.355-.32.765-.32 1.229V165h-2.571Zm12.31.213c-1.094 0-2.038-.227-2.834-.682-.796-.455-1.399-1.108-1.825-1.946-.426-.843-.639-1.835-.639-2.976 0-1.122.213-2.107.639-2.954.426-.847 1.032-1.515 1.804-1.989.772-.474 1.678-.717 2.72-.717.672 0 1.307.109 1.903.327.601.213 1.132.544 1.591.994.459.45.829 1.023 1.094 1.719.265.696.398 1.515.398 2.471v.789h-8.942v-1.733h6.477c-.005-.493-.111-.931-.32-1.314-.208-.389-.499-.694-.873-.916-.374-.222-.8-.334-1.293-.334-.526 0-.987.128-1.385.383s-.708.583-.93.995c-.218.407-.329.854-.334 1.342v1.513c0 .634.116 1.179.348 1.633.232.454.556.796.973 1.037.417.241.904.355 1.463.355.374 0 .713-.052 1.016-.156.2925-.103.5608-.265.788-.476.222-.208.391-.466.504-.774l2.401.27c-.152.634-.44 1.188-.867 1.662s-.961.833-1.619 1.094c-.658.255-1.411.383-2.258.383ZM1126.43 16V1.45501h5.46c1.12 0 2.05.19399 2.81.58199.76.388 1.34.93301 1.73 1.63401.39.70099.59 1.50799.59 2.43599 0 .928-.2 1.74201-.6 2.42901-.39.682-.97 1.21-1.74 1.58399-.77.374-1.71.554-2.83.554h-3.88V8.486h3.53c.65 0 1.19-.09 1.6-.27.42-.185.73-.452.93-.803.2-.35099.3-.791.3-1.307 0-.516-.1-.956-.3-1.321-.21-.369-.52-.649-.93-.83799-.42-.194-.96-.29101-1.62-.29101h-2.41V16h-2.64Zm7.52-6.59099L1137.55 16h-2.94l-3.54-6.59099h2.88ZM1144 16.213c-1.09 0-2.04-.227-2.83-.682-.79-.455-1.4-1.108-1.83-1.946-.42-.843-.64-1.835-.64-2.976 0-1.12199.22-2.107.64-2.955.43-.852 1.04-1.515 1.81-1.989.77-.474 1.68-.717 2.72-.717.65-.0035 1.29.10719 1.9.327.6.213 1.13.545 1.59.994.47.45.83 1.023 1.1 1.719.26.691.39 1.51501.39 2.472v.788h-8.94V9.516h6.48c-.01-.492-.11-.93-.32-1.314-.21-.384-.5-.694-.87-.916-.37-.222-.8-.334-1.3-.334-.52 0-.98.128-1.38.384-.4.256-.71.582-.93.994-.22.412-.33.85501-.34 1.342v1.513c0 .634.12 1.179.35 1.633.23.454.56.795.97 1.037.42.237.91.355 1.47.355.37 0 .71-.052 1.01-.156.31-.109.57-.268.79-.476.22-.208.39-.466.51-.774l2.4.27c-.16.634-.44 1.188-.87 1.662-.42.469-.96.833-1.62 1.094-.66.261-1.41.384-2.26.384v-.001Zm11.79 0c-1.09 0-2.03-.239-2.81-.717-.78-.478-1.37-1.139-1.8-1.981-.41-.848-.62-1.823-.62-2.926 0-1.103.21-2.08599.64-2.933.42-.852 1.03-1.515 1.8-1.989.78-.478 1.71-.717 2.77-.717.89 0 1.67.163 2.35.49.69.322 1.24.779 1.64 1.371.41.587.64 1.274.7 2.06001H1158c-.1-.526-.33-.96401-.71-1.31401-.37-.355-.86-.533-1.48-.533-.53 0-.99.142-1.39.426-.39.279-.7.682-.93 1.207-.22.526-.32 1.155-.32 1.889 0 .743.1 1.383.32 1.918.22.535.53.94.92 1.229.41.288.9.4373 1.4.426.38 0 .72-.071 1.01-.213.31-.147.56-.357.76-.632.21-.275.35-.608.42-1.001h2.46c-.06.772-.29 1.456-.68 2.053-.39.597-.93 1.056-1.61 1.392-.67.331-1.47.497-2.38.497v-.002Zm11.54 0c-1.07 0-1.99-.234-2.77-.703-.78-.4687-1.41-1.1512-1.82-1.967-.42-.843-.64-1.828-.64-2.954 0-1.126.22-2.114.64-2.962.41-.81869 1.04-1.50383 1.82-1.974.78-.469 1.7-.703 2.77-.703 1.06 0 1.99.234 2.77.703s1.38 1.127 1.81 1.974c.43.847.65 1.835.65 2.962 0 1.127-.22 2.112-.65 2.954-.43.842-1.03 1.499-1.81 1.967-.78.468-1.71.703-2.77.703Zm.01-2.06c.58 0 1.06-.159 1.45-.476.39-.317.68-.753.87-1.293.19-.54.29-1.141.29-1.804s-.1-1.271-.29-1.811c-.19-.54-.48-.978-.87-1.3-.39-.322-.87-.483-1.45-.483-.59 0-1.08.161-1.47.483-.39.322-.68.755-.88 1.3-.19.54-.28 1.143-.28 1.811 0 .668.09 1.264.28 1.804.2.54.49.971.88 1.293.39.322.88.476 1.47.476Zm9.97-4.545V16h-2.57V5.091h2.46v1.854h.12c.25-.59394.66-1.10091 1.2-1.456.56-.36 1.24-.54 2.06-.54.75 0 1.41.161 1.96.483.57.322 1 .788 1.31 1.399.31.611.47 1.352.46 2.223V16h-2.57V9.452c0-.729-.19-1.3-.57-1.712-.37-.412-.89-.618-1.55-.618-.45 0-.85.099-1.2.298-.35.199-.62.47601-.82.84501-.19.369-.29.81799-.29 1.34299Zm18.24-1.634-2.35.256c-.06-.237-.18-.459-.34-.668-.16-.209-.38-.376-.66-.504-.27-.12799-.61-.192-1.01-.192-.53 0-.98.11601-1.34.348-.36.232-.54.533-.54.902 0 .317.11.57501.35.77401.24.199.64.36199 1.19.48999l1.86.398c1.04.222 1.8.575 2.31 1.058.5.483.76 1.115.76 1.896.01.6562-.2 1.2967-.6 1.818-.39.521-.94.928-1.64 1.222-.7.294-1.51.44-2.42.44-1.33 0-2.41-.279-3.22-.838-.81-.559-1.3-1.347-1.46-2.351l2.51-.241c.11.492.36.864.73 1.115.36.251.84.376 1.44.376.61 0 1.1-.125 1.47-.376.37-.251.56-.561.56-.93 0-.1479-.03-.2946-.09-.4287-.06-.1342-.15-.2523-.27-.3453-.24-.204-.61-.36-1.11-.469l-1.86-.391c-1.05-.218-1.82-.585-2.33-1.101-.5-.52099-.75-1.17899-.74-1.97399-.01-.672.18-1.255.55-1.74701.37-.492.89-.881 1.55-1.151.67-.275 1.44-.412 2.31-.412 1.28 0 2.28.272 3.02.817.74.545 1.19 1.281 1.37 2.209Zm7.8-2.884v1.99h-6.27V5.091l6.27-.001Zm-4.72-2.61399h2.57V12.718c0 .346.05.611.15.795.11.18.26.303.43.369.19.0678.38.1017.58.1.16 0 .31-.012.44-.036l.32-.064.43 2.01c-.19.0626-.39.1147-.59.156-.3.0624-.61.0956-.92.099-.65.019-1.23-.078-1.74-.291-.52-.218-.93-.554-1.23-1.009-.3-.455-.45-1.023-.44-1.704V2.47601ZM1205.5 16V5.091h2.49v1.818h.12c.2-.63.54-1.115 1.02-1.456.49-.34587 1.07-.52732 1.67-.518l.47.021c.18.009.33.026.45.05v2.365c-.17-.05001-.34-.08317-.52-.099-.22-.03276-.45-.04947-.67-.05-.47 0-.89.102-1.27.305-.36.199-.66.476-.87.831-.22.37293-.33.79786-.32 1.229V16h-2.57Zm14.88-4.588V5.091h2.57V16h-2.49v-1.939h-.11c-.25.611-.65 1.11-1.22 1.499-.56.388-1.24.582-2.06.582-.72 0-1.35-.159-1.9-.476-.54-.322-.97-.788-1.28-1.399-.31-.611-.46-1.359-.46-2.23V5.091h2.57v6.548c0 .691.19 1.24.57 1.648.38.408.88.611 1.49.611.38 0 .75-.092 1.1-.277.36-.1891.67-.4741.88-.824.23-.369.34-.831.34-1.385Zm9.98 4.801c-1.09 0-2.03-.239-2.81-.717-.78-.478-1.37-1.139-1.8-1.981-.41-.848-.62-1.823-.62-2.926 0-1.103.21-2.08599.64-2.933.42-.852 1.03-1.515 1.8-1.989.78-.478 1.71-.717 2.77-.717.89 0 1.67.163 2.35.49.69.322 1.24.779 1.64 1.371.41.587.64 1.274.7 2.06001h-2.46c-.1-.526-.33-.96401-.71-1.31401-.37-.355-.86-.533-1.48-.533-.53 0-.99.142-1.39.426-.39.279-.7.682-.93 1.207-.21.526-.32 1.155-.32 1.889 0 .743.11 1.383.32 1.918.22.53.53.94.92 1.229.41.288.9.4373 1.4.426.38 0 .72-.071 1.01-.213.31-.147.56-.357.76-.632.21-.275.35-.608.42-1.001h2.46c-.06.772-.29 1.456-.68 2.053-.39.597-.93 1.056-1.61 1.392-.67.331-1.47.497-2.38.497v-.002Zm12.23-11.122V7.08h-6.27V5.091h6.27Zm-4.72-2.61399h2.57V12.719c0 .346.05.611.15.795.11.18.25.303.43.369.17.066.37.1.58.1.16 0 .31-.012.44-.036l.31-.064.44 2.01c-.14.047-.34.099-.59.156-.31.0629-.62.0961-.93.099-.64.019-1.22-.078-1.74-.291-.5-.2069-.92-.5583-1.22-1.009-.3-.454-.45-1.023-.44-1.704V2.47701Zm11.58 13.73599c-1.09 0-2.04-.227-2.83-.682-.79-.455-1.4-1.108-1.83-1.946-.42-.843-.64-1.835-.64-2.976 0-1.12199.22-2.107.64-2.955.43-.852 1.03-1.515 1.81-1.989.77-.478 1.67-.717 2.72-.717.65-.0035 1.29.10719 1.9.327.6.213 1.13.545 1.59.994.46.449.83 1.023 1.09 1.719.27.691.4 1.51501.4 2.472v.788h-8.94V9.516h6.48c-.01-.492-.11-.93-.32-1.314-.2-.38156-.51-.69889-.88-.916-.36-.223-.8-.334-1.29-.334-.52 0-.99.128-1.38.384-.4.251-.71.582-.93.994-.22.412-.33.85501-.34 1.342v1.513c0 .634.12 1.179.35 1.633.23.454.56.795.97 1.037.42.237.91.355 1.47.355.37 0 .71-.052 1.01-.156.31-.109.57-.268.79-.476.22-.208.39-.466.51-.774l2.4.27c-.16.634-.44 1.188-.87 1.662-.42.469-.96.833-1.62 1.094-.66.261-1.41.384-2.26.384v-.001Zm11.08-.021c-.86 0-1.63-.22-2.31-.661-.67-.44-1.21-1.079-1.6-1.918-.39-.839-.59-1.856-.59-3.054 0-1.212.2-2.23499.6-3.068.4-.833.94-1.47 1.62-1.896.68-.43129 1.47-.65569 2.28-.646.64 0 1.17.109 1.58.327.41.218.74.471.98.774.24.303.43.58.56.845h.11V1.45501h2.58V16h-2.53v-1.719h-.16c-.13.265-.32.547-.57.845-.26.294-.59.544-1 .753-.41.209-.93.313-1.55.313Zm.71-2.109c.55 0 1.01-.147 1.39-.44.39-.298.68-.712.88-1.243.2-.531.3-1.148.3-1.854 0-.706-.1-1.31899-.3-1.83999-.2-.521-.48-.92601-.87-1.21401-.38-.289-.84-.433-1.4-.433-.57 0-1.05.149-1.43.447-.39.298-.67.71-.87 1.236-.19.526-.29 1.127-.29 1.804s.1 1.29.29 1.825c.2.53.49.949.88 1.257.38.303.86.455 1.42.455Zm12.8 6.009v-15h2.52v1.804h.15c.16-.29903.35-.58201.56-.845.25-.303.57-.561.98-.774.42-.218.94-.327 1.58-.327.81-.00969 1.6.21471 2.28.646.68.42601 1.22 1.05801 1.62 1.896.4.838.6 1.85601.6 3.068 0 1.198-.19 2.216-.59 3.054-.39.838-.92 1.477-1.6 1.918-.68.441-1.44.661-2.3.661-.63 0-1.15-.104-1.56-.312-.41-.208-.74-.459-.99-.753-.22-.2604-.42-.5437-.58-.845h-.1v5.81h-2.57v-.001Zm2.52-9.545c0 .705.1 1.323.3 1.854.2.531.49.945.87 1.243.38.298.85.44 1.39.44.57 0 1.05-.152 1.43-.455.38-.303.67-.727.87-1.257.19-.535.29-1.143.29-1.825 0-.682-.09-1.278-.29-1.804-.19-.526-.48-.937-.86-1.236-.39-.298-.87-.447-1.44-.447-.55 0-1.01.144-1.4.433-.38.289-.67.694-.87 1.214-.2.52001-.29 1.134-.29 1.84Zm9.98 5.454V5.091h2.57V16l-2.57.001Zm1.29-12.457c-.41 0-.76-.135-1.05-.405-.14-.12247-.25-.27429-.33-.44479-.08-.17049-.11-.35556-.11-.54221 0-.18675.03-.37202.11-.54263.08-.1706.19-.32233.33-.44437.14-.13442.3-.240008.48-.31071.18-.070702.38-.105123.57-.101285.19-.003838.39.030583.57.101285.18.070702.34.17629.48.31071.29.27.44.599.44.987s-.15.71301-.44.987c-.29.274-.64.405-1.05.405Zm8.68 12.67c-1.09 0-2.02-.239-2.81-.717-.77-.478-1.37-1.139-1.79-1.981-.42-.842-.63-1.823-.63-2.926 0-1.10299.22-2.086.64-2.933.43-.85199 1.03-1.515 1.81-1.989.78-.47399 1.7-.717 2.77-.717.88 0 1.66.163 2.35.49.68.322 1.23.779 1.64 1.371.4.587.64 1.274.69 2.06h-2.45c-.09-.50532-.34-.96721-.72-1.314-.36-.355-.86-.533-1.48-.533-.49-.01129-.98.13821-1.38.426-.4.279-.71.682-.93 1.207-.22.525-.33 1.155-.33 1.889 0 .743.11 1.383.33 1.918.21.53.52.94.91 1.229.4.284.87.426 1.4.426.38 0 .72-.071 1.02-.213.3-.1478.56-.3644.76-.632.2-.275.34-.608.42-1.001h2.45c-.06.772-.29 1.456-.68 2.053-.4.5979-.95 1.0784-1.6 1.392-.68.331-1.48.497-2.39.497v-.002Zm12.23-11.122V7.08h-6.27V5.091l6.27.001Zm-4.72-2.614h2.57V12.72c0 .346.05.611.16.795.1.18.25.303.42.369.19.0678.38.1017.58.1.16 0 .31-.012.44-.036l.32-.064.43 2.01c-.19.0626-.39.1147-.59.156-.3.0624-.61.0956-.92.099-.65.019-1.23-.078-1.74-.291-.52-.218-.93-.554-1.23-1.009-.3-.455-.45-1.023-.44-1.704V2.478Zm13.82 8.935V5.091h2.58V16h-2.5v-1.939h-.11c-.25.611-.65 1.11-1.22 1.499-.55.388-1.24.582-2.06.582-.72 0-1.35-.159-1.9-.476-.54-.322-.97-.788-1.28-1.399-.3-.615-.46-1.359-.46-2.23V5.091h2.57v6.548c0 .691.19 1.24.57 1.648.38.408.88.611 1.49.611.38 0 .75-.092 1.1-.277.36-.1891.67-.4741.88-.824.23-.369.34-.831.34-1.385v.001Zm5.22 4.588V5.091h2.49v1.818h.12c.19-.63.54-1.115 1.02-1.456.49-.34587 1.07-.52732 1.67-.518l.47.021c.18.009.33.026.45.05v2.365c-.17-.05001-.34-.08317-.52-.099-.22-.03276-.45-.04947-.67-.05-.47 0-.89.102-1.27.305-.36.19079-.66.47855-.87.831-.22.37293-.33.79786-.32 1.229V16l-2.57.001Zm12.31.213c-1.09 0-2.04-.227-2.83-.682-.8-.459-1.4-1.108-1.83-1.946-.43-.838-.64-1.835-.64-2.976 0-1.122.21-2.10699.64-2.955.4-.81966 1.02-1.50926 1.8-1.989.78-.478 1.68-.717 2.72-.717.68 0 1.31.109 1.91.327.6.218 1.13.545 1.59.994.46.449.83 1.023 1.09 1.719.27.691.4 1.51501.4 2.472v.788h-8.94V9.516h6.48c-.01-.492-.12-.93-.32-1.314-.2-.38156-.51-.69889-.88-.916-.37-.223-.8-.334-1.29-.334-.53 0-.99.128-1.39.384-.39.251-.7.582-.93.994-.21.407-.32.85501-.33 1.342v1.513c0 .634.12 1.179.35 1.633.23.454.56.795.97 1.037.42.237.91.355 1.46.355.38 0 .72-.052 1.02-.156.3-.104.57-.268.79-.476.23-.2146.4-.4799.5-.774l2.4.27c-.14.6173-.44 1.1888-.86 1.662-.42.469-.96.833-1.62 1.094-.66.261-1.41.384-2.26.384ZM1128.57 40l-3.08-10.909h2.62l1.92 7.671h.1l1.96-7.671h2.59l1.96 7.628h.11l1.89-7.628h2.62L1138.17 40h-2.67l-2.05-7.372h-.15L1131.26 40h-2.69Zm14.49 0V29.091h2.57V40h-2.57Zm1.29-12.457c-.41 0-.76-.135-1.05-.405-.29-.27-.44-.604-.44-.987 0-.1864.04-.3711.11-.5414.08-.1703.19-.3223.33-.4456.14-.1344.3-.24.48-.3107.18-.0707.38-.1051.57-.1013.19-.0038.39.0306.57.1013.18.0707.34.1763.48.3107.3.27.44.599.44.987 0 .1867-.03.3717-.11.5422-.08.1705-.19.3223-.33.4448-.29.27-.64.405-1.05.405Zm9.37 1.548v1.989h-6.27v-1.989h6.27Zm-4.72-2.614h2.57v10.242c0 .346.05.611.16.795.1.18.25.303.42.369.19.0675.38.101.58.099.17 0 .31-.012.44-.036l.32-.064.43 2.01c-.19.0626-.39.1147-.59.156-.3.0624-.61.0956-.92.099-.65.019-1.23-.078-1.74-.291-.52-.218-.93-.554-1.23-1.009-.3-.455-.45-1.023-.44-1.705V26.477Zm9.68 7.131V40h-2.57V25.455h2.51v5.49h.13c.24-.5941.65-1.1021 1.18-1.456.54-.36 1.23-.54 2.06-.54.76 0 1.42.159 1.99.476.56.317.99.781 1.3 1.392.31.611.47 1.356.47 2.237V40h-2.57v-6.548c0-.734-.19-1.304-.57-1.712-.37-.412-.9-.618-1.57-.618-.43-.0078-.85.0948-1.23.298-.35.194-.63.476-.83.845-.2.369-.3.817-.3 1.342v.001Zm17.79 6.612c-.69 0-1.31-.123-1.87-.369-.55-.251-.98-.62-1.3-1.108-.32-.488-.48-1.089-.48-1.804 0-.615.12-1.124.34-1.527.23-.402.54-.724.93-.966.4-.241.84-.424 1.33-.547.5-.128 1.01-.22 1.54-.277l1.56-.178c.4-.057.68-.142.86-.256.19-.118.28-.301.28-.547v-.043c0-.535-.16-.949-.47-1.243-.32-.294-.78-.44-1.38-.44-.63 0-1.12.137-1.49.412-.37.275-.62.599-.74.973l-2.4-.341c.19-.663.5-1.217.93-1.662.44-.45.97-.786 1.6-1.009.63-.223 1.33-.341 2.09-.341.53.0001 1.06.0622 1.57.185.51.1178.99.3246 1.43.611.43.279.77.661 1.03 1.143.27.483.4 1.087.4 1.811V40h-2.47v-1.499h-.08c-.16.303-.38.587-.67.852-.27.26-.63.471-1.05.632-.43.156-.92.235-1.49.235Zm.67-1.889c.52 0 .96-.102 1.34-.305.38-.203.67-.483.88-.824.2-.341.31-.713.31-1.115v-1.285c-.08.066-.22.128-.41.185-.21.0608-.42.1105-.64.149l-.71.114-.6.085c-.38.052-.73.137-1.03.256-.3.119-.54.284-.72.497-.17.208-.26.478-.26.81 0 .474.17.831.52 1.073.34.241.78.362 1.32.362v-.002Zm11.73 1.861c-.86 0-1.63-.22-2.31-.661-.67-.44-1.21-1.079-1.6-1.918-.39-.839-.59-1.856-.59-3.054 0-1.212.2-2.235.6-3.068.4-.833.94-1.47 1.62-1.896.68-.4313 1.47-.6557 2.28-.646.64 0 1.17.109 1.58.327.41.218.74.471.98.774.24.303.43.58.56.845h.11v-5.44h2.58V40h-2.53v-1.719h-.16c-.13.265-.32.547-.57.845-.26.294-.59.545-1 .753-.41.208-.93.313-1.55.313Zm.71-2.109c.55 0 1.01-.147 1.39-.44.39-.298.68-.713.88-1.243.2-.53.3-1.148.3-1.854 0-.706-.1-1.319-.3-1.839-.2-.52-.48-.926-.87-1.215-.38-.289-.84-.433-1.4-.433-.57 0-1.05.149-1.43.448-.39.298-.67.71-.87 1.236-.19.526-.29 1.127-.29 1.804s.1 1.29.29 1.825c.2.53.49.949.88 1.257.38.303.86.454 1.42.454Zm11.88 2.109c-.85 0-1.62-.22-2.3-.661-.68-.441-1.21-1.079-1.6-1.918-.4-.838-.59-1.856-.59-3.054 0-1.212.2-2.235.59-3.068.41-.838.95-1.47 1.63-1.896.68-.4313 1.47-.6557 2.28-.646.64 0 1.16.109 1.58.327.41.213.74.471.98.774.24.303.43.58.56.845h.1v-5.44h2.58V40h-2.53v-1.719h-.15c-.13.265-.33.547-.58.845-.25.298-.58.545-.99.753-.41.208-.93.313-1.56.313Zm.72-2.109c.54 0 1.01-.147 1.39-.44.39-.298.68-.713.88-1.243.19-.53.29-1.148.29-1.854 0-.706-.1-1.319-.29-1.839-.2-.521-.49-.926-.87-1.215-.38-.289-.85-.433-1.4-.433-.57 0-1.05.149-1.43.448-.39.298-.68.71-.87 1.236-.19.526-.29 1.127-.29 1.804s.1 1.29.29 1.825c.2.53.49.949.87 1.257.39.303.87.454 1.43.454Zm12.66 2.131c-1.09 0-2.04-.227-2.83-.682-.79-.455-1.4-1.108-1.83-1.946-.42-.843-.64-1.835-.64-2.976 0-1.122.22-2.107.64-2.955.43-.852 1.04-1.515 1.81-1.989.77-.474 1.68-.717 2.72-.717.65-.0035 1.29.1072 1.9.327.6.213 1.13.544 1.59.994.47.45.83 1.023 1.1 1.719.26.691.39 1.515.39 2.472v.788h-8.94v-1.733h6.48c-.01-.492-.11-.93-.32-1.314-.21-.384-.5-.694-.87-.916-.37-.222-.81-.334-1.3-.334-.52 0-.98.128-1.38.384-.4.256-.71.582-.93.994-.22.412-.33.855-.34 1.342v1.513c0 .634.12 1.179.35 1.633.23.454.56.795.97 1.037.42.237.91.355 1.47.355.37 0 .71-.052 1.01-.156.31-.109.57-.268.79-.476.22-.208.39-.466.51-.774l2.4.27c-.16.634-.44 1.188-.87 1.662-.42.469-.96.833-1.62 1.094-.66.261-1.41.384-2.26.384Zm11.08-.021c-.86 0-1.63-.22-2.3-.661-.68-.44-1.22-1.079-1.61-1.918-.39-.839-.59-1.856-.59-3.054 0-1.212.2-2.235.6-3.068.4-.833.94-1.47 1.62-1.896.68-.4287 1.47-.6529 2.28-.646.64 0 1.17.109 1.58.327.41.218.74.471.98.774.24.303.43.58.56.845h.11v-5.44h2.58V40h-2.53v-1.719h-.16c-.13.265-.32.547-.57.845-.26.294-.59.545-1 .753-.41.208-.93.314-1.55.314Zm.71-2.109c.55 0 1.01-.147 1.4-.44.38-.298.67-.713.87-1.243.2-.53.3-1.148.3-1.854 0-.706-.1-1.319-.3-1.839-.19-.521-.48-.926-.87-1.215-.38-.289-.84-.433-1.4-.433-.57 0-1.05.149-1.43.448-.38.299-.67.71-.87 1.236-.19.526-.29 1.127-.29 1.804s.1 1.29.29 1.825c.2.53.49.949.88 1.257.38.303.86.454 1.42.454Zm18.32-8.991v1.989h-6.45v-1.989h6.45ZM1240.12 40V28.061c0-.734.15-1.345.45-1.832.31-.488.72-.852 1.24-1.094.51-.241 1.08-.362 1.71-.362.45 0 .84.035 1.19.107l.77.192-.51 1.989c-.11-.033-.25-.066-.42-.099-.18-.0398-.37-.0589-.55-.057-.48 0-.82.116-1.02.348-.19.227-.29.554-.29.98V40h-2.57Zm6.85 0V29.091h2.57V40h-2.57Zm1.29-12.457c-.41 0-.76-.135-1.05-.405-.14-.1225-.25-.2743-.33-.4448-.08-.1705-.11-.3555-.11-.5422 0-.388.14-.717.44-.987.14-.1344.3-.24.48-.3107.18-.0707.38-.1051.57-.1013.19-.0038.39.0306.57.1013.18.0707.34.1763.48.3107.14.1233.25.2753.33.4456.07.1703.11.355.11.5414 0 .383-.15.713-.44.987-.29.274-.64.405-1.05.405Zm6.49-2.088V40h-2.57V25.455h2.57ZM1257.4 40V29.091h2.45v1.854h.13c.23-.625.6-1.113 1.13-1.463.53-.35 1.15-.533 1.88-.533.74 0 1.36.18 1.87.54.51.36.87.84 1.08 1.456h.11c.24-.606.65-1.089 1.22-1.449.58-.364 1.27-.547 2.06-.547 1 0 1.82.317 2.45.952.64.634.96 1.56.96 2.777V40h-2.58v-6.925c0-.677-.18-1.172-.54-1.484-.36-.312-.8-.476-1.32-.476-.62 0-1.11.194-1.46.582-.34.384-.52.883-.52 1.499V40h-2.52v-7.031c0-.564-.17-1.013-.51-1.35-.34-.337-.78-.504-1.32-.504-.36-.0042-.71.0944-1.01.284-.3.185-.54.447-.72.788-.18.341-.27.729-.27 1.179V40h-2.57Zm27.65 4.318c-.92 0-1.72-.125-2.38-.376-.66-.251-1.2-.578-1.6-.994-.4-.416-.68-.878-.84-1.385l2.32-.561c.1.213.26.424.45.632.2.213.47.388.81.526.34.138.77.213 1.28.213.73 0 1.34-.178 1.81-.533.48-.35.72-.928.72-1.733V38.04h-.13c-.13.265-.32.537-.58.817-.28.302-.62.5416-1 .703-.41.189-.93.284-1.56.284-.83 0-1.59-.197-2.28-.59-.67-.398-1.21-.99-1.62-1.776-.39-.791-.59-1.78-.59-2.969 0-1.198.2-2.209.59-3.033.41-.829.95-1.456 1.63-1.882.68-.4313 1.47-.6557 2.28-.646.64 0 1.17.109 1.58.327.41.218.75.471.99.774.22.2554.41.5396.56.845h.14V29.09h2.54v11.087c0 .933-.22 1.705-.67 2.315-.44.611-1.05 1.068-1.82 1.371-.77.303-1.65.455-2.63.455Zm.02-6.491c.55 0 1.01-.133 1.39-.398.39-.265.68-.646.88-1.144.2-.498.29-1.094.29-1.79 0-.687-.09-1.288-.29-1.804-.2-.516-.49-.916-.87-1.2-.38-.284-.84-.433-1.4-.433-.57 0-1.05.149-1.43.448-.39.298-.68.708-.87 1.229-.19.521-.29 1.103-.29 1.761 0 .668.1 1.252.29 1.754.2.497.49.885.87 1.165.39.275.87.412 1.43.412Zm7.74 2.173V29.091h2.49v1.818h.11c.2-.63.54-1.115 1.02-1.456.49-.346 1.05-.518 1.67-.518l.48.021c.15.0062.3.0229.45.05v2.365c-.11-.038-.28-.071-.52-.099-.23-.033-.46-.05-.68-.05-.46 0-.89.102-1.26.305-.36.1908-.66.4786-.87.831-.22.355-.32.765-.32 1.229V40h-2.57Zm10.87.22c-.69 0-1.31-.123-1.87-.369-.53-.2387-.99-.6228-1.31-1.108-.31-.488-.47-1.089-.47-1.804 0-.615.11-1.124.34-1.527.23-.403.54-.724.93-.966.41-.2495.86-.434 1.33-.547.5-.128 1.01-.22 1.54-.277l1.55-.178c.4-.057.69-.142.87-.256.19-.118.28-.301.28-.547v-.043c0-.535-.16-.949-.48-1.243-.32-.294-.77-.44-1.37-.44-.63 0-1.13.137-1.5.412-.36.275-.61.599-.74.973l-2.4-.341c.17-.6233.49-1.1944.94-1.662.44-.45.97-.786 1.6-1.009.63-.223 1.32-.341 2.09-.341.52 0 1.05.062 1.57.185s.99.327 1.42.611c.44.279.78.661 1.04 1.143.27.483.4 1.087.4 1.811V40h-2.47v-1.499h-.09c-.15.303-.37.587-.66.852-.28.26-.63.471-1.06.632-.42.156-.91.235-1.48.235Zm.67-1.889c.51 0 .96-.102 1.34-.305.38-.203.67-.483.87-.824.21-.334.32-.7206.32-1.115v-1.285c-.09.066-.22.128-.42.185-.19.057-.4.107-.64.149l-.7.114-.6.085c-.35.0432-.7.1291-1.03.256-.31.118-.54.284-.72.497-.18.213-.26.478-.26.81 0 .474.17.831.52 1.073.34.241.78.362 1.32.362v-.002Zm7.67 1.669V29.091h2.58V40h-2.58Zm1.3-12.457c-.41 0-.76-.135-1.05-.405-.14-.1225-.25-.2743-.33-.4448-.08-.1705-.11-.3555-.11-.5422 0-.388.14-.717.44-.987.14-.1344.3-.24.48-.3107.18-.0707.38-.1051.57-.1013.19-.0038.39.0306.57.1013.18.0707.34.1763.48.3107.14.1233.25.2753.33.4456.07.1703.11.355.11.5414 0 .383-.15.713-.44.987-.29.274-.64.405-1.05.405Zm6.49 6.065V40h-2.57V29.091h2.46v1.854h.12c.25-.5939.66-1.1009 1.2-1.456.56-.36 1.24-.54 2.06-.54.75 0 1.41.161 1.96.483.57.322 1 .788 1.31 1.399.31.611.47 1.352.46 2.223V40h-2.57v-6.548c0-.729-.19-1.3-.57-1.712-.37-.412-.89-.618-1.55-.618-.45 0-.85.099-1.2.298-.35.199-.62.476-.82.845-.19.369-.29.817-.29 1.342v.001Zm-190.92 24V64h-2.57V53.091h2.46v1.854h.13c.25-.611.65-1.096 1.2-1.456.55-.36 1.23-.54 2.05-.54.75 0 1.41.161 1.97.483.56.322 1 .788 1.3 1.399.32.611.47 1.352.46 2.223V64h-2.57v-6.548c0-.729-.19-1.3-.56-1.712-.38-.412-.9-.618-1.56-.618-.45 0-.85.099-1.2.298-.35.199-.62.476-.82.845-.19.369-.29.817-.29 1.342v.001Zm14.38 6.605c-1.07 0-1.99-.234-2.77-.703-.78-.4687-1.41-1.1512-1.82-1.967-.43-.843-.64-1.828-.64-2.955s.21-2.114.64-2.962c.41-.8187 1.04-1.5038 1.82-1.974.78-.469 1.7-.703 2.77-.703 1.06 0 1.99.234 2.77.703s1.38 1.127 1.81 1.974c.43.847.64 1.835.64 2.962 0 1.127-.21 2.112-.64 2.955-.43.843-1.03 1.499-1.81 1.967-.78.468-1.71.703-2.77.703Zm.01-2.06c.58 0 1.06-.159 1.45-.476.39-.317.68-.753.87-1.293.19-.54.29-1.141.29-1.804s-.1-1.271-.29-1.811c-.19-.54-.48-.978-.87-1.3-.39-.322-.87-.483-1.45-.483-.59 0-1.08.161-1.48.483-.38.322-.68.755-.87 1.3-.19.545-.28 1.144-.28 1.811s.09 1.264.28 1.804c.19.54.49.971.87 1.293.4.317.89.476 1.48.476Zm7.4 1.847V53.091h2.57V64h-2.57Zm1.29-12.457c-.41 0-.76-.135-1.05-.405-.14-.1225-.25-.2743-.33-.4448-.08-.1705-.11-.3555-.11-.5422 0-.388.14-.717.44-.987.14-.1344.3-.24.48-.3107.18-.0707.38-.1051.57-.1013.19-.0038.39.0306.57.1013.18.0707.34.1763.48.3107.14.1233.25.2753.33.4456.07.1703.11.355.11.5414 0 .384-.15.713-.44.987-.29.274-.64.405-1.05.405Zm12.54 4.432-2.34.256c-.07-.244-.19-.4713-.35-.668-.16-.208-.38-.376-.65-.504-.28-.128-.61-.192-1.01-.192-.54 0-.99.116-1.35.348-.36.232-.54.533-.53.902-.01.1476.02.2951.08.4298.06.1348.15.2528.27.3442.24.199.63.362 1.19.49l1.86.398c1.03.223 1.8.575 2.3 1.058.51.483.76 1.115.77 1.896 0 .6565-.21 1.2954-.61 1.818-.39.521-.94.928-1.64 1.222-.7.294-1.5.44-2.41.44-1.34 0-2.41-.279-3.23-.838-.81-.563-1.3-1.347-1.45-2.351l2.51-.241c.11.492.35.864.72 1.115s.85.376 1.44.376c.61 0 1.1-.125 1.47-.376.38-.251.56-.561.56-.93 0-.1479-.03-.2946-.09-.4287-.06-.1342-.15-.2523-.27-.3453-.24-.204-.61-.36-1.11-.469l-1.86-.391c-1.04-.218-1.82-.585-2.32-1.101-.5-.516-.75-1.179-.75-1.974 0-.672.18-1.255.55-1.747.37-.492.89-.881 1.56-1.151.66-.275 1.43-.412 2.3-.412 1.28 0 2.29.272 3.02.817.74.544 1.2 1.281 1.37 2.209Zm7.19 8.239c-1.1 0-2.04-.227-2.84-.682-.79-.4535-1.42-1.131-1.82-1.946-.43-.843-.64-1.835-.64-2.976 0-1.122.21-2.107.64-2.955.43-.848 1.03-1.515 1.8-1.989.77-.474 1.68-.717 2.72-.717.67 0 1.31.109 1.91.327.6.218 1.13.544 1.59.994.46.45.83 1.023 1.09 1.719.27.691.4 1.515.4 2.472v.788h-8.94v-1.733h6.47c0-.492-.11-.93-.32-1.314-.2-.388-.5-.694-.87-.916-.37-.222-.8-.334-1.29-.334-.53 0-.99.128-1.39.383-.39.251-.7.582-.93.994-.22.407-.33.855-.33 1.342v1.513c0 .634.11 1.179.35 1.633.23.45.55.795.97 1.037.42.242.9.355 1.46.355.38 0 .72-.052 1.02-.156.29-.1052.56-.2669.79-.476.23-.2146.4-.4799.5-.774l2.4.27c-.14.6173-.44 1.1888-.86 1.662-.43.469-.97.833-1.62 1.094-.66.256-1.42.385-2.26.385Z"/>
    <path fill="#fff" d="M373.496 74.326h-2.39c-.059-.3679-.187-.7213-.377-1.042-.183-.303-.412-.567-.684-.78-.272-.213-.584-.373-.933-.479-.362-.1131-.74-.1692-1.119-.166-.712 0-1.342.179-1.892.537-.55.358-.98.874-1.291 1.56-.311.686-.467 1.515-.467 2.499 0 1.002.156 1.845.467 2.531.311.686.745 1.197 1.291 1.547.546.35 1.178.518 1.886.518.392 0 .758-.051 1.099-.153.341-.102.654-.262.927-.467.278-.2053.514-.4611.697-.754.191-.298.323-.639.396-1.023l2.39.013c-.086.6139-.283 1.2072-.581 1.751-.294.546-.68 1.027-1.157 1.445-.477.418-1.036.737-1.675.972s-1.349.345-2.128.345c-1.151 0-2.178-.266-3.081-.799s-1.615-1.302-2.135-2.308c-.52-1.006-.78-2.212-.78-3.618 0-1.406.262-2.616.786-3.618.524-1.002 1.238-1.775 2.141-2.308.903-.533 1.927-.799 3.069-.799.689-.0059 1.375.0977 2.032.307.627.205 1.185.505 1.675.901s.893.874 1.208 1.445c.315.571.528 1.215.626 1.943Zm6.353 8.866c-.959 0-1.79-.211-2.493-.633-.703-.4218-1.271-1.036-1.637-1.77-.383-.759-.575-1.645-.575-2.659 0-1.014.192-1.903.575-2.665.364-.7369.932-1.3537 1.637-1.777.703-.422 1.534-.633 2.493-.633.959 0 1.789.211 2.492.633.703.422 1.247 1.014 1.63 1.777.383.763.582 1.651.582 2.665s-.194 1.9-.582 2.659c-.388.759-.926 1.349-1.63 1.77-.704.421-1.534.633-2.492.633Zm.012-1.854c.52 0 .955-.143 1.304-.428.349-.285.61-.678.78-1.163.17-.485.262-1.027.262-1.623 0-.596-.087-1.144-.262-1.63-.175-.486-.43-.88-.78-1.17-.35-.29-.784-.435-1.304-.435-.532 0-.976.145-1.329.435-.353.29-.612.68-.786 1.17-.174.49-.256 1.029-.256 1.63-.008.5516.079 1.1005.256 1.623.171.485.436.874.786 1.163.35.289.797.428 1.329.428ZM386.517 83v-9.818h2.244v1.636h.102c.179-.567.486-1.004.92-1.31.44-.3096.965-.473 1.503-.467l.428.019c.135.0055.269.0205.402.045v2.129c-.152-.0452-.308-.0753-.466-.09-.201-.0294-.404-.0445-.607-.045-.396-.0062-.788.0884-1.138.275-.326.1721-.598.431-.786.748-.192.32-.288.688-.288 1.106V83h-2.314Zm11.079.192c-.984 0-1.834-.205-2.55-.614-.708-.409-1.28-1.0182-1.643-1.751-.384-.758-.575-1.651-.575-2.678 0-1.01.191-1.896.575-2.659.384-.763.929-1.364 1.623-1.79.694-.426 1.511-.646 2.449-.646.605 0 1.176.098 1.713.294.537.1894 1.026.495 1.431.895.418.405.746.92.985 1.547.239.627.358 1.364.358 2.224v.709h-8.048v-1.56h5.83c.004-.4121-.095-.8187-.288-1.183-.187-.349-.449-.624-.786-.825-.337-.201-.72-.3-1.163-.3-.473 0-.889.115-1.247.345-.358.23-.637.524-.837.895-.199.3716-.302.7867-.301 1.208v1.362c0 .571.105 1.061.314 1.47.209.409.5.716.875.933.375.217.814.32 1.317.32.31.004.619-.0437.914-.141.263-.0926.505-.2382.71-.428.204-.1933.359-.4322.453-.697l2.161.243c-.129.5569-.397 1.0718-.78 1.496-.379.422-.865.75-1.457.984-.592.234-1.27.345-2.033.345v.002ZM408.487 83V69.909h8.514v1.988h-6.143v3.554h5.702v1.988h-5.702v3.573h6.194V83h-8.565Zm13.145-5.753V83h-2.314v-9.818h2.211v1.668h.116c.225-.55.585-.986 1.08-1.31.495-.324 1.114-.486 1.847-.486.678 0 1.268.145 1.771.435.503.29.899.71 1.176 1.259.277.549.42 1.217.415 2.001V83h-2.314v-5.894c0-.656-.17-1.17-.511-1.54-.341-.37-.803-.556-1.4-.556-.405 0-.765.09-1.08.269-.313.1772-.569.4415-.735.761-.175.332-.262.734-.262 1.207Zm12.937 5.945c-.98 0-1.821-.215-2.525-.646-.698-.43-1.238-1.025-1.617-1.783s-.562-1.641-.562-2.633.191-1.877.575-2.64c.36-.739.923-1.36 1.624-1.79.699-.426 1.534-.646 2.492-.646.797 0 1.503.147 2.116.441.613.294 1.11.701 1.477 1.234s.575 1.146.626 1.854h-2.211c-.079-.4533-.304-.8686-.64-1.183-.332-.32-.777-.479-1.336-.479-.473 0-.888.128-1.246.383s-.637.614-.837 1.087c-.2.473-.294 1.04-.294 1.7 0 .669.098 1.244.294 1.726.196.482.47.846.824 1.106.368.2586.809.3928 1.259.383.341 0 .646-.064.914-.192s.501-.322.684-.569c.183-.247.309-.548.378-.901h2.211c-.055.695-.26 1.31-.613 1.847-.353.537-.836.95-1.445 1.253-.609.303-1.325.448-2.148.448Zm10.389 0c-.959 0-1.79-.211-2.493-.633-.703-.4215-1.271-1.0358-1.636-1.77-.384-.759-.576-1.645-.576-2.659 0-1.014.192-1.903.576-2.665.363-.7374.931-1.3545 1.636-1.777.703-.422 1.534-.633 2.493-.633.959 0 1.79.211 2.493.633.703.4225 1.27 1.0397 1.63 1.777.388.763.581 1.651.581 2.665s-.193 1.9-.581 2.659c-.388.759-.927 1.349-1.63 1.77-.703.421-1.534.633-2.493.633Zm.013-1.854c.52 0 .954-.143 1.304-.428.35-.285.609-.678.78-1.163.171-.485.262-1.027.262-1.623.007-.5543-.082-1.1057-.262-1.63-.174-.486-.431-.88-.78-1.17-.349-.29-.784-.435-1.304-.435-.533 0-.976.145-1.33.435-.354.29-.611.68-.786 1.17-.175.49-.256 1.029-.256 1.63-.008.5516.079 1.1005.256 1.623.171.485.437.874.786 1.163.349.289.797.428 1.33.428Zm10.299 1.835c-.771 0-1.462-.198-2.071-.594-.609-.396-1.091-.972-1.445-1.726-.354-.754-.53-1.671-.53-2.749 0-1.091.179-2.011.537-2.761.358-.75.85-1.323 1.463-1.707.613-.384 1.298-.582 2.052-.582.576 0 1.049.098 1.419.294.37.196.665.424.882.697.217.273.386.522.505.761h.096V69.91h2.321V83h-2.276v-1.547h-.141c-.142.2729-.316.5282-.517.761-.226.264-.525.49-.895.677-.37.187-.838.282-1.4.282Zm.645-1.898c.491 0 .908-.132 1.253-.396.345-.264.608-.641.787-1.119.179-.478.268-1.033.268-1.668s-.089-1.187-.268-1.656c-.179-.469-.435-.833-.78-1.093-.345-.26-.761-.39-1.26-.39-.515 0-.946.134-1.291.403s-.605.639-.78 1.112c-.175.473-.262 1.014-.262 1.624 0 .61.088 1.161.262 1.643.174.482.442.854.787 1.131.345.277.777.409 1.284.409Zm11.396 1.918c-.984 0-1.835-.205-2.551-.614-.71-.4068-1.282-1.0166-1.642-1.751-.383-.754-.576-1.651-.576-2.678 0-1.01.192-1.896.576-2.659.384-.763.929-1.364 1.623-1.79.694-.426 1.511-.646 2.448-.646.584-.0037 1.164.0958 1.714.294.537.1894 1.026.495 1.431.895.418.405.746.92.985 1.547.239.627.358 1.364.358 2.224v.709h-8.048v-1.56h5.83c-.005-.443-.101-.837-.288-1.183-.181-.3422-.453-.6277-.786-.825-.333-.2-.72-.3-1.164-.3-.473 0-.888.115-1.246.345-.358.23-.637.524-.837.895-.2.371-.297.769-.301 1.208v1.362c0 .571.105 1.061.313 1.47.208.409.501.716.876.933.375.217.814.32 1.317.32.31.004.619-.0437.914-.141.263-.0922.505-.2379.709-.428.205-.193.36-.4319.454-.697l2.161.243c-.129.5566-.398 1.0713-.78 1.496-.379.422-.865.75-1.457.984-.592.234-1.27.345-2.033.345v.002Zm6.323-.192v-9.818h2.244v1.636h.102c.179-.567.486-1.004.921-1.31.438-.3113.964-.4749 1.502-.467l.428.019c.162.008.296.023.403.045v2.129c-.098-.034-.254-.064-.467-.09l-.607-.045c-.422 0-.801.092-1.138.275-.337.183-.594.428-.786.748-.192.32-.288.688-.288 1.106V83l-2.314.001ZM134.727 189h-4.436v-13.091h4.526c1.299 0 2.416.262 3.349.786.933.524 1.658 1.268 2.161 2.244.503.976.754 2.143.754 3.503 0 1.36-.254 2.535-.761 3.515-.481.956-1.241 1.743-2.179 2.257-.95.524-2.084.786-3.414.786Zm-2.064-2.052h1.949c.912 0 1.673-.166 2.282-.498.609-.332 1.068-.838 1.374-1.503.306-.665.461-1.504.461-2.505s-.154-1.833-.461-2.493c-.307-.66-.76-1.161-1.361-1.489-.601-.328-1.338-.499-2.224-.499h-2.02v8.987Zm14.915 2.244c-.984 0-1.834-.205-2.55-.614-.716-.409-1.259-.997-1.643-1.751-.384-.754-.575-1.652-.575-2.679 0-1.01.192-1.896.575-2.659.388-.767.929-1.363 1.624-1.789.695-.426 1.511-.646 2.448-.646.605 0 1.176.098 1.713.294.537.189 1.026.495 1.432.895.418.405.746.92.984 1.547.238.627.358 1.363.358 2.224v.71h-8.047v-1.56h5.829c-.004-.443-.1-.837-.287-1.182-.181-.343-.453-.628-.787-.825-.332-.2-.72-.3-1.163-.3-.473 0-.889.115-1.246.345-.357.23-.638.524-.838.895-.197.372-.3.787-.3 1.208v1.361c0 .571.104 1.061.313 1.47.195.39.499.715.876.934.375.213.814.319 1.316.319.337 0 .642-.047.915-.14.273-.093.509-.241.709-.429.2-.188.352-.419.454-.696l2.16.242c-.129.557-.397 1.071-.779 1.496-.38.422-.866.75-1.458.985-.592.23-1.27.345-2.033.345Zm8.638-5.945V189h-2.314v-9.818h2.211v1.668h.116c.225-.55.585-.986 1.08-1.31.495-.324 1.114-.486 1.847-.486.678 0 1.268.145 1.771.435.509.293.918.732 1.176 1.259.277.55.42 1.216.415 2.001V189h-2.314v-5.893c0-.657-.17-1.17-.511-1.541-.341-.371-.803-.556-1.4-.556-.405 0-.765.089-1.08.268-.315.179-.556.429-.735.761-.179.332-.262.735-.262 1.208Zm12.937 5.945c-.959 0-1.79-.211-2.493-.633-.703-.422-1.248-1.012-1.636-1.771-.388-.759-.575-1.645-.575-2.659 0-1.014.191-1.902.575-2.665.384-.763.933-1.355 1.636-1.777.703-.422 1.534-.633 2.493-.633.959 0 1.79.211 2.493.633.703.422 1.247 1.014 1.63 1.777.383.763.582 1.651.582 2.665s-.194 1.901-.582 2.659c-.361.735-.927 1.35-1.63 1.771-.703.422-1.534.633-2.493.633Zm.013-1.854c.52 0 .955-.143 1.304-.428.349-.285.609-.678.78-1.164.181-.522.269-1.071.262-1.623 0-.601-.087-1.144-.262-1.63-.175-.486-.431-.88-.78-1.17-.349-.29-.784-.435-1.304-.435-.533 0-.976.145-1.33.435-.354.29-.611.68-.786 1.17-.175.49-.255 1.029-.255 1.63s.085 1.138.255 1.623c.17.485.437.874.786 1.164.349.29.797.428 1.33.428Zm6.656 1.662v-9.818h2.314V189h-2.314Zm1.163-11.212c-.351.006-.69-.124-.946-.364-.264-.247-.396-.543-.396-.888-.002-.168.032-.335.1-.488.069-.154.17-.29.296-.401.264-.247.58-.371.946-.371.352-.006.692.127.946.371.126.111.227.247.296.401.068.153.102.32.1.488 0 .345-.132.641-.396.888s-.575.364-.946.364Zm11.29 3.989-2.109.23c-.06-.213-.164-.413-.314-.601-.144-.187-.34-.339-.588-.454-.248-.115-.549-.172-.907-.172-.482 0-.887.104-1.215.313-.328.209-.483.479-.479.812-.006.133.019.265.074.386.054.121.136.227.239.311.217.179.575.326 1.074.441l1.675.358c.929.2 1.619.517 2.071.952.452.435.686 1.004.69 1.707-.004.618-.185 1.163-.543 1.636-.358.473-.846.835-1.477 1.099-.631.264-1.355.397-2.173.397-1.202 0-2.169-.252-2.902-.754-.733-.508-1.17-1.213-1.311-2.116l2.257-.218c.102.444.319.778.652 1.004.333.226.765.339 1.297.339.55 0 .991-.113 1.324-.339.333-.226.505-.505.505-.837.003-.133-.025-.266-.082-.386-.056-.121-.14-.228-.244-.311-.214-.183-.546-.324-.998-.422l-1.674-.352c-.942-.196-1.639-.526-2.091-.99-.452-.464-.675-1.061-.671-1.777-.004-.605.16-1.13.492-1.573.332-.443.804-.792 1.4-1.035.596-.243 1.294-.371 2.078-.371 1.15 0 2.056.245 2.716.735.66.49 1.076 1.153 1.234 1.988Zm6.466 7.415c-.985 0-1.835-.205-2.551-.614-.708-.409-1.279-1.019-1.643-1.751-.383-.759-.575-1.652-.575-2.679 0-1.01.192-1.896.575-2.659.383-.763.929-1.363 1.624-1.789.695-.426 1.511-.646 2.448-.646.605 0 1.176.098 1.713.294.537.189 1.026.495 1.432.895.418.405.746.92.984 1.547.238.627.358 1.363.358 2.224v.71h-8.047v-1.56h5.829c-.004-.443-.1-.837-.287-1.182-.181-.343-.453-.628-.787-.825-.332-.2-.72-.3-1.163-.3-.473 0-.888.115-1.246.345-.358.23-.637.524-.838.895-.197.372-.3.787-.3 1.208v1.361c0 .571.104 1.061.313 1.47.195.39.499.715.876.934.375.213.814.319 1.317.319.336 0 .641-.047.914-.14.273-.093.509-.241.709-.429.2-.188.352-.419.454-.696l2.16.242c-.129.557-.397 1.071-.779 1.496-.38.422-.865.75-1.458.985-.592.23-1.27.345-2.032.345Zm6.323-.192v-9.818h2.244v1.636h.102c.179-.567.486-1.003.92-1.31.439-.31.965-.473 1.502-.467l.429.019c.162.009.296.024.402.045v2.129c-.098-.034-.253-.064-.466-.09-.201-.029-.404-.045-.608-.045-.396-.006-.787.089-1.137.275-.333.179-.595.429-.787.748-.192.319-.287.688-.287 1.106V189h-2.314ZM1003.73 84h-4.439V70.909h4.529c1.3 0 2.41.262 3.35.786.93.5167 1.68 1.298 2.16 2.244.5.976.75 2.144.75 3.503s-.25 2.535-.76 3.516c-.48.957-1.24 1.7443-2.18 2.256-.95.524-2.08.786-3.41.786Zm-2.07-2.052h1.95c.91 0 1.67-.166 2.28-.499.61-.333 1.07-.837 1.38-1.502.31-.665.46-1.504.46-2.506 0-1.002-.15-1.832-.46-2.493-.31-.661-.76-1.161-1.36-1.489-.6-.328-1.34-.499-2.23-.499h-2.02v8.988Zm14.92 2.244c-.99 0-1.84-.205-2.55-.614-.71-.409-1.26-.997-1.64-1.751-.39-.758-.58-1.651-.58-2.678 0-1.01.19-1.896.58-2.659.38-.767.92-1.364 1.62-1.79.69-.43 1.51-.646 2.45-.646.6 0 1.17.098 1.71.294.54.1889 1.03.4946 1.43.895.42.405.75.92.99 1.547.23.622.35 1.364.35 2.224v.709h-8.04v-1.56h5.83c-.01-.443-.1-.837-.29-1.183-.19-.346-.45-.624-.79-.825-.33-.2-.72-.3-1.16-.3-.47 0-.89.115-1.25.345-.35.2196-.64.5285-.83.895-.2.367-.3.769-.31 1.208v1.362c0 .571.11 1.061.32 1.47.19.3881.5.712.87.933.38.213.82.32 1.32.32.31.0045.62-.0432.91-.141.26-.0907.51-.2366.71-.428.21-.1923.36-.4313.46-.697l2.16.243c-.13.5557-.4 1.0698-.78 1.496-.38.422-.87.75-1.46.984-.59.234-1.27.345-2.03.345v.002Zm10.6 0c-.98 0-1.82-.215-2.52-.646-.7-.4287-1.26-1.0471-1.62-1.783-.37-.763-.56-1.641-.56-2.633s.19-1.877.58-2.64c.38-.767.92-1.364 1.62-1.79.7-.426 1.53-.646 2.49-.646.8 0 1.5.147 2.12.441.59.2681 1.1.6951 1.47 1.234.37.528.58 1.146.63 1.854h-2.21c-.09-.473-.3-.867-.64-1.183-.33-.32-.78-.479-1.34-.479-.44-.0079-.88.1264-1.24.383-.36.251-.64.614-.84 1.087-.2.473-.29 1.04-.29 1.7 0 .669.09 1.244.29 1.726.2.482.47.846.82 1.106.36.256.78.383 1.26.383.34 0 .65-.064.92-.192.27-.1307.5-.3262.68-.569.18-.247.31-.548.38-.901h2.21c-.05.695-.26 1.31-.61 1.847-.36.5381-.86.9703-1.45 1.253-.61.303-1.32.448-2.15.448Zm10.39 0c-.96 0-1.79-.211-2.49-.633-.7-.4231-1.27-1.0368-1.64-1.77-.38-.759-.57-1.645-.57-2.659 0-1.014.19-1.903.57-2.665.37-.7361.94-1.3524 1.64-1.777.7-.422 1.53-.633 2.49-.633.96 0 1.79.211 2.5.633.7.422 1.24 1.014 1.63 1.777.38.763.58 1.651.58 2.665s-.2 1.9-.58 2.659c-.39.758-.93 1.349-1.63 1.77-.71.422-1.54.633-2.5.633Zm.02-1.854c.52 0 .95-.143 1.3-.428.35-.285.61-.678.78-1.163.17-.485.26-1.027.26-1.623.01-.5541-.08-1.1052-.26-1.63-.17-.49-.43-.88-.78-1.17-.35-.29-.78-.435-1.3-.435-.54 0-.98.145-1.33.435-.37.3093-.64.7144-.79 1.17-.18.5248-.27 1.0759-.26 1.63-.01.5518.08 1.1006.26 1.623.15.4531.42.8556.79 1.163.35.285.79.428 1.33.428Zm10.3 1.835c-.78 0-1.47-.198-2.08-.594-.61-.396-1.09-.972-1.44-1.726-.35-.754-.53-1.671-.53-2.749 0-1.091.18-2.011.54-2.761.36-.75.85-1.323 1.46-1.707.61-.3861 1.33-.5881 2.05-.582.58 0 1.05.098 1.42.294.37.196.67.424.88.697.22.268.39.522.51.761h.09V70.91h2.32V84h-2.27v-1.547h-.14c-.14.2737-.32.5292-.52.761-.23.264-.52.49-.9.677-.37.188-.83.282-1.39.282Zm.64-1.898c.49 0 .91-.132 1.25-.396.35-.268.61-.641.79-1.119.18-.478.27-1.033.27-1.668s-.09-1.187-.27-1.656c-.17-.469-.43-.833-.78-1.093-.34-.26-.76-.39-1.26-.39-.51 0-.95.134-1.29.403-.35.269-.61.639-.78 1.112-.18.473-.26 1.014-.26 1.624 0 .61.08 1.161.26 1.643s.44.854.79 1.131c.35.277.77.409 1.28.409Zm11.4 1.918c-.99 0-1.84-.205-2.55-.614-.72-.413-1.26-.997-1.65-1.751-.38-.758-.57-1.651-.57-2.678 0-1.01.19-1.896.57-2.659.39-.767.93-1.364 1.63-1.79.69-.43 1.51-.646 2.44-.646.61 0 1.18.098 1.72.294.54.1889 1.03.4946 1.43.895.42.405.75.92.98 1.547.24.622.36 1.364.36 2.224v.709h-8.05v-1.56h5.83c0-.4112-.09-.8173-.28-1.183-.19-.349-.45-.624-.79-.825-.33-.2-.72-.3-1.16-.3-.48 0-.89.115-1.25.345-.36.23-.64.524-.84.895-.19.367-.29.769-.3 1.208v1.362c0 .571.11 1.061.32 1.47.19.3901.49.7148.87.933.38.213.82.32 1.32.32.33 0 .64-.047.91-.141.26-.0915.51-.2373.71-.428.2-.1951.36-.4333.46-.697l2.16.243c-.13.5557-.4 1.0698-.78 1.496-.38.422-.87.75-1.46.984-.59.234-1.27.345-2.03.345v.002Zm6.32-.192v-9.818h2.24v1.636h.11c.17-.567.48-1.004.92-1.31.43-.311.94-.467 1.5-.467l.43.019c.13.0052.27.0203.4.045v2.129c-.1-.034-.25-.064-.47-.09-.2-.0291-.4-.0442-.6-.045-.43 0-.81.092-1.14.275-.33.1698-.6.4291-.79.748-.19.32-.29.688-.29 1.106V84l-2.31.001ZM584.049 165.909V179h-2.109l-6.169-8.917h-.108V179h-2.372v-13.091h2.122l6.162 8.923h.115v-8.923h2.359Zm6.764 13.283c-.958 0-1.789-.211-2.493-.633-.704-.422-1.248-1.012-1.636-1.771-.383-.758-.575-1.645-.575-2.659 0-1.014.192-1.902.575-2.665.388-.763.933-1.355 1.636-1.777.703-.422 1.535-.633 2.493-.633s1.79.211 2.493.633c.703.422 1.247 1.014 1.63 1.777.383.763.582 1.651.582 2.665s-.194 1.901-.582 2.659c-.361.735-.927 1.35-1.63 1.771-.703.422-1.534.633-2.493.633Zm.013-1.854c.52 0 .955-.143 1.304-.428.349-.285.61-.678.78-1.164.181-.522.269-1.071.262-1.623 0-.601-.087-1.144-.262-1.63-.17-.49-.43-.88-.78-1.17-.35-.29-.784-.435-1.304-.435-.532 0-.976.145-1.329.435-.353.29-.612.68-.787 1.17-.175.49-.255 1.029-.255 1.63s.085 1.138.255 1.623c.17.485.437.874.787 1.164.35.29.797.428 1.329.428Zm6.656 1.662v-9.818h2.314V179h-2.314Zm1.163-11.212c-.351.006-.69-.124-.946-.364-.264-.247-.396-.543-.396-.888-.002-.168.032-.335.1-.488.069-.154.17-.29.296-.401.264-.247.58-.371.946-.371s.686.124.946.371c.26.247.397.539.397.889s-.133.641-.397.888-.575.364-.946.364Zm11.29 3.989-2.109.23c-.06-.213-.164-.413-.313-.601s-.341-.339-.588-.454c-.247-.115-.55-.172-.908-.172-.482 0-.886.104-1.215.313-.323.209-.483.479-.479.812-.006.133.019.265.074.386.054.121.136.227.239.311.218.179.575.326 1.074.441l1.675.358c.929.2 1.619.517 2.071.952.452.435.686 1.004.69 1.707-.004.618-.185 1.163-.543 1.636-.358.473-.846.835-1.477 1.099-.631.264-1.355.397-2.173.397-1.202 0-2.169-.252-2.902-.754-.356-.24-.656-.553-.882-.917-.226-.365-.372-.774-.428-1.199l2.256-.218c.102.444.32.778.652 1.004.332.226.765.339 1.298.339.549 0 .99-.113 1.323-.339.333-.226.505-.505.505-.837.003-.133-.025-.266-.082-.386-.056-.121-.14-.228-.244-.311-.213-.183-.546-.324-.997-.422l-1.675-.352c-.942-.196-1.639-.526-2.09-.99-.451-.464-.676-1.061-.672-1.777-.004-.605.16-1.13.493-1.573.333-.443.803-.792 1.399-1.035.596-.243 1.294-.371 2.078-.371 1.15 0 2.056.245 2.717.735.656.475 1.098 1.189 1.233 1.988Zm6.466 7.415c-.985 0-1.835-.205-2.551-.614-.716-.409-1.259-.997-1.642-1.751-.383-.754-.576-1.652-.576-2.679 0-1.01.192-1.896.576-2.659.384-.763.929-1.363 1.623-1.789.694-.426 1.511-.646 2.448-.646.605 0 1.176.098 1.713.294.542.192 1.019.49 1.432.895.413.405.746.92.985 1.547.239.627.358 1.363.358 2.224v.71h-8.048v-1.56h5.829c-.004-.443-.1-.837-.287-1.182-.187-.345-.45-.625-.786-.825-.336-.2-.721-.3-1.164-.3-.473 0-.888.115-1.246.345-.358.23-.637.524-.838.895-.197.372-.3.787-.3 1.208v1.361c0 .571.104 1.061.313 1.47.195.39.499.715.876.934.375.213.814.319 1.317.319.336 0 .641-.047.914-.14.273-.093.509-.241.709-.429.2-.188.352-.419.454-.696l2.161.242c-.129.557-.398 1.071-.78 1.496-.379.422-.865.75-1.458.985-.592.23-1.269.345-2.032.345Zm10.89-13.283h2.902l3.887 9.486h.153l3.886-9.486h2.902V179h-2.275v-8.994h-.122l-3.618 8.956h-1.7l-3.618-8.975h-.121V179h-2.276v-13.091Zm20.493 13.283c-.959 0-1.79-.211-2.493-.633-.703-.422-1.248-1.012-1.636-1.771-.388-.759-.575-1.645-.575-2.659 0-1.014.191-1.902.575-2.665.384-.763.933-1.355 1.636-1.777.703-.422 1.534-.633 2.493-.633.959 0 1.79.211 2.493.633.703.423 1.27 1.04 1.63 1.777.388.763.582 1.651.582 2.665s-.194 1.901-.582 2.659c-.388.758-.927 1.349-1.63 1.771-.703.422-1.534.633-2.493.633Zm.013-1.854c.52 0 .954-.143 1.304-.428.35-.285.609-.678.78-1.164.171-.486.262-1.027.262-1.623 0-.596-.088-1.144-.262-1.63-.174-.486-.431-.88-.78-1.17-.349-.29-.784-.435-1.304-.435-.533 0-.976.145-1.33.435-.349.29-.611.68-.786 1.17-.175.49-.256 1.029-.256 1.63s.086 1.138.256 1.623c.17.485.437.874.786 1.164.354.285.797.428 1.33.428Zm10.299 1.835c-.771 0-1.462-.199-2.071-.595-.609-.396-1.091-.971-1.445-1.726-.354-.755-.53-1.67-.53-2.748 0-1.091.179-2.012.537-2.762.358-.75.85-1.323 1.464-1.706s1.297-.582 2.051-.582c.576 0 1.049.098 1.419.294.37.196.665.424.883.697.218.273.385.522.505.76h.095v-4.896h2.321V179h-2.276v-1.547h-.14c-.12.239-.292.492-.518.761-.226.269-.524.49-.895.677-.371.187-.837.282-1.4.282Zm.646-1.899c.49 0 .907-.132 1.252-.396s.608-.641.787-1.119c.179-.478.268-1.033.268-1.668s-.089-1.187-.268-1.656c-.179-.469-.435-.833-.78-1.093-.345-.26-.761-.39-1.259-.39-.516 0-.946.135-1.292.403-.346.268-.605.639-.779 1.112-.174.473-.262 1.015-.262 1.624 0 .609.087 1.161.262 1.643.175.482.441.854.786 1.131.345.277.778.409 1.285.409Zm11.395 1.918c-.984 0-1.834-.205-2.55-.614-.708-.409-1.28-1.018-1.643-1.751-.384-.759-.575-1.652-.575-2.679 0-1.01.191-1.896.575-2.659.384-.763.929-1.363 1.623-1.789.694-.426 1.511-.646 2.449-.646.605 0 1.176.098 1.713.294.537.19 1.026.495 1.432.895.417.405.745.92.984 1.547.239.627.358 1.363.358 2.224v.71h-8.048v-1.56h5.83c-.004-.443-.1-.837-.288-1.182-.18-.343-.452-.629-.786-.825-.332-.2-.72-.3-1.163-.3-.473 0-.889.115-1.247.345-.358.23-.637.524-.837.895-.196.366-.296.769-.301 1.208v1.361c0 .571.105 1.061.314 1.47.209.409.5.716.875.934.375.218.814.319 1.317.319.31.004.619-.043.914-.14.264-.093.505-.239.71-.429.2-.187.351-.419.453-.696l2.161.242c-.129.557-.397 1.072-.78 1.496-.379.422-.865.75-1.457.985-.593.23-1.27.345-2.033.345Zm8.637-13.283V179h-2.314v-13.091h2.314ZM573.291 201v-13.091h8.514v1.988h-6.142v3.554h5.701v1.988h-5.701v3.573h6.194V201h-8.566Zm18.591-7.223-2.109.23c-.06-.213-.164-.413-.313-.601s-.341-.339-.588-.454c-.247-.115-.55-.172-.908-.172-.481 0-.886.104-1.214.313-.328.209-.484.479-.48.812-.006.133.019.265.074.386.054.121.136.227.239.311.218.179.576.326 1.074.441l1.675.358c.929.2 1.619.517 2.071.952.452.435.686 1.004.69 1.707-.004.618-.185 1.163-.543 1.636-.358.473-.846.835-1.476 1.099s-1.356.397-2.174.397c-1.201 0-2.169-.252-2.902-.754-.356-.24-.656-.553-.882-.917-.226-.365-.372-.774-.428-1.199l2.256-.218c.103.444.32.778.652 1.004.332.226.765.339 1.298.339.55 0 .991-.113 1.323-.339.332-.226.505-.505.505-.837.003-.133-.025-.266-.082-.386-.056-.121-.14-.228-.244-.311-.213-.183-.546-.324-.997-.422l-1.675-.352c-.942-.196-1.638-.526-2.09-.99-.452-.464-.676-1.061-.671-1.777-.005-.605.16-1.13.492-1.573.332-.443.803-.792 1.4-1.035.597-.243 1.293-.371 2.077-.371 1.151 0 2.056.245 2.717.735s1.076 1.153 1.233 1.988Zm7.022-2.595v1.79h-5.644v-1.79h5.644Zm-4.251-2.352h2.314v9.217c0 .311.047.55.141.716.094.166.226.273.383.332.168.062.346.092.525.09.145 0 .277-.011.396-.032l.281-.058.39 1.809c-.123.043-.3.09-.53.141-.273.056-.552.086-.831.089-.58.017-1.102-.07-1.566-.262-.464-.192-.834-.498-1.106-.908-.272-.41-.401-.92-.397-1.534v-9.6Zm6.186 12.17v-9.818h2.314V201h-2.314Zm1.164-11.212c-.367 0-.682-.121-.946-.364-.126-.111-.227-.248-.295-.401-.069-.153-.103-.319-.102-.487-.002-.168.032-.335.101-.488.068-.154.169-.29.296-.401.264-.247.579-.371.946-.371s.686.124.946.371c.126.111.227.247.296.401.068.153.102.32.1.488 0 .345-.132.641-.396.888s-.576.364-.946.364Zm3.53 11.212v-9.818h2.211v1.668h.115c.205-.562.544-1.001 1.017-1.317.473-.316 1.037-.479 1.694-.479.664 0 1.225.162 1.681.486.456.324.784.756.971 1.31h.103c.215-.543.6-1.001 1.099-1.304.52-.328 1.136-.492 1.847-.492.904 0 1.641.285 2.212.857.571.572.856 1.404.856 2.499V201h-2.32v-6.232c0-.61-.162-1.055-.486-1.336-.324-.281-.72-.428-1.189-.428-.558 0-.995.174-1.31.524-.315.35-.467.794-.467 1.348V201h-2.269v-6.328c0-.507-.153-.912-.46-1.215-.307-.303-.699-.453-1.189-.453-.332 0-.635.085-.908.255-.273.17-.49.403-.652.71-.162.307-.242.656-.242 1.061V201h-2.314Zm18.979.198c-.622 0-1.182-.111-1.681-.332-.494-.226-.886-.558-1.176-.997-.29-.439-.428-.981-.428-1.624 0-.554.102-1.012.307-1.374.205-.362.483-.652.837-.87.354-.218.752-.381 1.195-.492.456-.116.919-.2 1.387-.249l1.4-.16c.358-.051.618-.128.78-.23.162-.102.249-.271.249-.492v-.039c0-.481-.142-.854-.428-1.118-.286-.264-.697-.396-1.234-.396-.566 0-1.016.123-1.348.37-.332.247-.55.539-.665.876l-2.161-.307c.171-.596.452-1.095.844-1.496.402-.41.894-.721 1.438-.907.567-.205 1.193-.307 1.88-.307.473 0 .943.055 1.412.166.469.111.897.294 1.285.55.394.258.715.612.933 1.029.239.435.358.978.358 1.63V201h-2.224v-1.349h-.077c-.152.288-.353.547-.594.767-.252.235-.569.424-.953.569-.379.141-.824.211-1.336.211Zm.601-1.7c.465 0 .867-.092 1.208-.275.324-.171.596-.428.786-.741.188-.307.282-.642.282-1.004v-1.157c-.073.06-.196.115-.371.166-.175.051-.362.096-.575.134l-.633.103-.543.076c-.346.047-.655.124-.927.231-.272.107-.488.255-.646.447-.158.187-.236.43-.236.729 0 .426.155.748.466.965.311.217.708.326 1.189.326Zm11.813-8.316v1.79h-5.645v-1.79h5.645Zm-4.251-2.352h2.314v9.217c0 .311.047.55.14.716.093.166.226.273.384.332s.332.09.524.09c.145 0 .277-.011.396-.032l.282-.058.39 1.809c-.124.043-.301.09-.531.141-.273.056-.552.086-.831.089-.579.017-1.101-.07-1.566-.262-.465-.192-.833-.498-1.106-.908-.273-.41-.4-.92-.396-1.534v-9.6Zm6.186 12.17v-9.818h2.314V201h-2.314Zm1.163-11.212c-.351.006-.69-.124-.946-.364-.264-.247-.396-.543-.396-.888-.002-.168.032-.335.1-.488.069-.154.17-.29.296-.401.264-.247.58-.371.946-.371s.686.124.946.371c.126.111.227.247.296.401.068.153.102.32.1.488 0 .345-.132.641-.396.888s-.575.364-.946.364Zm7.813 11.404c-.959 0-1.79-.211-2.493-.633-.703-.422-1.271-1.036-1.636-1.771-.384-.758-.576-1.645-.576-2.659 0-1.014.192-1.902.576-2.665.384-.763.933-1.355 1.636-1.777.703-.422 1.534-.633 2.493-.633.959 0 1.79.211 2.493.633.704.423 1.27 1.04 1.63 1.777.387.763.581 1.651.581 2.665s-.194 1.901-.581 2.659c-.387.758-.927 1.349-1.63 1.771-.703.422-1.534.633-2.493.633Zm.013-1.854c.519 0 .954-.143 1.304-.428.35-.285.609-.678.779-1.164.181-.522.269-1.071.262-1.623 0-.601-.087-1.144-.262-1.63-.175-.486-.43-.88-.779-1.17-.349-.29-.785-.435-1.304-.435-.533 0-.976.145-1.33.435-.349.29-.611.68-.786 1.17-.175.49-.256 1.029-.256 1.63s.085 1.138.256 1.623c.171.485.437.874.786 1.164.354.285.797.428 1.33.428Zm8.969-4.091V201h-2.314v-9.818h2.212v1.668h.115c.226-.55.586-.986 1.08-1.31.494-.324 1.115-.486 1.848-.486.677 0 1.267.145 1.77.435.503.29.899.709 1.176 1.259.277.55.42 1.216.416 2.001V201h-2.314v-5.893c0-.657-.171-1.17-.511-1.541-.34-.371-.804-.556-1.4-.556-.405 0-.765.089-1.081.268-.316.179-.556.429-.735.761-.179.332-.262.735-.262 1.208ZM383.815 179v-13.091h8.386v1.988h-6.015v3.554h5.44v1.988h-5.44V179h-2.371Zm12.758-13.091V179h-2.314v-13.091h2.314Zm5.205 13.289c-.622 0-1.183-.111-1.681-.332-.495-.226-.887-.558-1.176-.997-.289-.439-.429-.981-.429-1.624 0-.554.103-1.012.307-1.374.204-.362.484-.652.838-.87.371-.224.774-.39 1.195-.492.447-.115.91-.198 1.387-.249l1.4-.16c.358-.051.618-.128.78-.23.162-.102.249-.271.249-.492v-.039c0-.481-.143-.854-.428-1.118-.285-.264-.697-.396-1.234-.396-.567 0-1.016.123-1.349.37-.328.247-.549.539-.665.876l-2.16-.307c.17-.596.452-1.095.844-1.496.392-.401.871-.707 1.438-.907.604-.211 1.24-.315 1.879-.307.473 0 .944.055 1.413.166.469.111.897.294 1.285.55.387.251.698.594.933 1.029.235.435.358.978.358 1.63V179h-2.225v-1.349h-.076c-.141.273-.339.529-.595.767-.277.25-.6.444-.952.569-.379.141-.825.211-1.336.211Zm.601-1.7c.464 0 .867-.092 1.208-.275.324-.171.596-.428.786-.741.188-.307.281-.642.281-1.004v-1.157c-.072.06-.196.115-.37.166-.189.055-.382.1-.576.134l-.633.103-.543.076c-.317.04-.628.118-.927.231-.25.09-.473.244-.645.447-.158.187-.237.43-.237.729 0 .426.156.748.467.965.311.217.707.326 1.189.326Zm11.812-8.316v1.79h-5.644v-1.79h5.644Zm-4.25-2.352h2.313v9.217c0 .311.047.55.141.716.094.166.226.273.384.332.168.062.345.092.524.09.145 0 .277-.011.396-.032l.281-.058.39 1.809c-.123.043-.3.09-.53.141-.273.056-.552.086-.831.089-.58.017-1.102-.07-1.566-.262-.451-.185-.837-.501-1.106-.908-.269-.409-.401-.92-.396-1.534v-9.6Zm13.476 12.368c-.623 0-1.183-.111-1.682-.332-.494-.226-.886-.558-1.176-.997-.29-.439-.428-.981-.428-1.624 0-.554.102-1.012.307-1.374.205-.362.484-.652.837-.87.353-.218.752-.381 1.196-.492.456-.117.919-.2 1.387-.249l1.399-.16c.358-.051.618-.128.78-.23.162-.102.25-.271.25-.492v-.039c0-.481-.143-.854-.429-1.118-.286-.264-.696-.396-1.233-.396-.567 0-1.017.123-1.349.37-.332.247-.55.539-.665.876l-2.16-.307c.17-.596.451-1.095.843-1.496.392-.401.872-.707 1.439-.907.567-.2 1.193-.307 1.879-.307.473 0 .944.055 1.413.166.469.111.897.294 1.284.55.394.258.716.612.934 1.029.238.435.357.978.357 1.63V179h-2.224v-1.349h-.077c-.152.288-.353.548-.594.767-.252.235-.569.424-.953.569-.384.145-.824.211-1.335.211Zm.6-1.7c.465 0 .868-.092 1.208-.275.324-.172.596-.428.787-.741.187-.307.281-.642.281-1.004v-1.157c-.072.06-.196.115-.371.166-.175.051-.362.096-.575.134l-.633.103-.543.076c-.317.04-.628.118-.927.231-.273.106-.488.255-.646.447-.157.187-.236.43-.236.729 0 .426.155.748.466.965.311.217.708.326 1.189.326Zm6.91 1.502v-9.818h2.244v1.636h.102c.179-.567.486-1.003.921-1.31.438-.311.964-.475 1.502-.467l.428.019c.162.009.296.024.403.045v2.129c-.098-.034-.254-.064-.467-.09-.201-.029-.404-.044-.607-.045-.422 0-.801.092-1.138.275-.325.173-.597.432-.786.748-.192.32-.288.688-.288 1.106V179h-2.314Zm11.079.192c-.984 0-1.834-.205-2.55-.614-.716-.409-1.259-.997-1.643-1.751-.384-.754-.575-1.652-.575-2.679 0-1.01.192-1.896.575-2.659.388-.767.929-1.363 1.624-1.789.695-.426 1.51-.646 2.448-.646.605 0 1.176.098 1.713.294.537.19 1.026.495 1.432.895.417.405.745.92.984 1.547.239.627.358 1.363.358 2.224v.71h-8.048v-1.56h5.83c-.004-.443-.1-.837-.288-1.182-.18-.343-.452-.629-.786-.825-.332-.2-.72-.3-1.163-.3-.473 0-.889.115-1.247.345-.358.23-.637.524-.837.895-.196.366-.296.769-.301 1.208v1.361c0 .571.105 1.061.314 1.47.195.39.499.714.875.934.375.213.814.319 1.317.319.337 0 .642-.047.914-.14.264-.093.505-.239.71-.429.204-.193.359-.432.454-.696l2.16.242c-.129.557-.397 1.072-.78 1.496-.379.422-.865.75-1.457.985-.592.23-1.27.345-2.033.345Zm9.149.006c-.622 0-1.183-.111-1.681-.332-.495-.226-.887-.558-1.176-.997-.289-.439-.429-.981-.429-1.624 0-.554.103-1.012.307-1.374.2-.357.488-.656.837-.87.371-.224.775-.39 1.196-.492.447-.115.91-.198 1.387-.249l1.4-.16c.358-.051.618-.128.78-.23.162-.102.249-.271.249-.492v-.039c0-.481-.143-.854-.428-1.118-.285-.264-.697-.396-1.234-.396-.567 0-1.016.123-1.349.37-.333.247-.55.539-.665.876l-2.16-.307c.17-.596.452-1.095.844-1.496.392-.401.871-.707 1.438-.907.604-.211 1.24-.315 1.879-.307.473 0 .944.055 1.413.166.469.111.897.294 1.285.55.387.251.698.594.933 1.029.235.435.358.978.358 1.63V179h-2.225v-1.349h-.076c-.141.273-.339.529-.595.767-.277.25-.6.444-.952.569-.379.141-.825.211-1.336.211Zm.601-1.7c.464 0 .867-.092 1.208-.275.324-.171.596-.428.786-.741.188-.307.281-.642.281-1.004v-1.157c-.072.06-.196.115-.37.166-.189.055-.382.1-.576.134l-.633.103-.543.076c-.317.04-.628.118-.927.231-.25.09-.473.244-.645.447-.158.187-.237.43-.237.729 0 .426.156.748.467.965.311.217.707.326 1.189.326Zm-85.644 10.411V201h-2.372v-13.091h2.372Zm6.109 13.264c-.771 0-1.462-.199-2.071-.595-.609-.396-1.091-.971-1.445-1.726-.354-.755-.53-1.67-.53-2.748 0-1.091.179-2.012.537-2.762.358-.75.85-1.323 1.464-1.706s1.297-.582 2.051-.582c.576 0 1.049.098 1.419.294.37.196.665.424.883.697.218.273.385.522.505.76h.095v-4.896h2.321V201h-2.276v-1.547h-.14c-.12.239-.292.492-.518.761-.226.269-.524.49-.895.677-.371.187-.837.282-1.4.282Zm.646-1.899c.49 0 .907-.132 1.252-.396s.608-.641.787-1.119c.179-.478.268-1.033.268-1.668s-.089-1.187-.268-1.656c-.179-.469-.435-.833-.78-1.093-.345-.26-.761-.39-1.259-.39-.516 0-.946.135-1.292.403-.346.268-.605.639-.779 1.112-.174.473-.262 1.015-.262 1.624 0 .609.087 1.161.262 1.643.175.482.441.854.786 1.131.345.277.778.409 1.285.409Zm11.395 1.918c-.984 0-1.834-.205-2.55-.614-.708-.409-1.28-1.018-1.643-1.751-.384-.759-.575-1.652-.575-2.679 0-1.01.191-1.896.575-2.659.384-.763.929-1.363 1.623-1.789.694-.426 1.511-.646 2.449-.646.605 0 1.176.098 1.713.294.537.19 1.026.495 1.432.895.417.405.745.92.984 1.547.239.627.358 1.363.358 2.224v.71h-8.048v-1.56h5.83c-.004-.443-.1-.837-.288-1.182-.18-.343-.452-.629-.786-.825-.332-.2-.72-.3-1.163-.3-.473 0-.889.115-1.247.345-.358.23-.637.524-.837.895-.196.366-.296.769-.301 1.208v1.361c0 .571.105 1.061.314 1.47.209.409.5.716.875.934.375.218.814.319 1.317.319.31.004.619-.043.914-.14.264-.093.505-.239.71-.429.2-.187.351-.419.453-.696l2.161.242c-.129.557-.397 1.072-.78 1.496-.379.422-.865.75-1.457.985-.593.23-1.27.345-2.033.345Zm8.637-5.945V201h-2.314v-9.818h2.212v1.668h.115c.226-.55.586-.986 1.08-1.31.494-.324 1.115-.486 1.848-.486.677 0 1.267.145 1.77.435.503.29.899.709 1.176 1.259.277.55.42 1.216.416 2.001V201h-2.314v-5.893c0-.657-.17-1.17-.511-1.541-.341-.371-.804-.556-1.4-.556-.405 0-.765.089-1.081.268-.316.179-.556.429-.735.761-.179.332-.262.735-.262 1.208Zm13.558-4.065v1.79h-5.644v-1.79h5.644Zm-4.251-2.352h2.314v9.217c0 .311.047.55.141.716.094.166.226.273.383.332s.333.09.524.09c.145 0 .277-.011.397-.032l.281-.058.39 1.809c-.124.043-.301.09-.531.141-.273.056-.552.086-.831.089-.579.017-1.101-.07-1.566-.262-.465-.192-.833-.498-1.106-.908-.268-.409-.4-.92-.396-1.534v-9.6Zm6.186 12.17v-9.818h2.314V201h-2.314Zm1.163-11.212c-.351.006-.69-.124-.946-.364-.264-.247-.396-.543-.396-.888-.002-.168.032-.335.1-.488.069-.154.17-.29.296-.401.254-.243.594-.376.946-.371.371 0 .686.124.946.371.127.111.228.247.296.401.069.153.103.32.101.488.001.168-.033.334-.102.487-.068.153-.169.29-.295.401-.26.243-.575.364-.946.364Zm8.503 1.394v1.79h-5.804v-1.79h5.804ZM413.705 201v-10.745c0-.661.137-1.21.41-1.649.267-.43.653-.772 1.112-.985.464-.217.98-.326 1.547-.326.358-.004.715.028 1.067.096l.69.173-.46 1.79c-.098-.03-.221-.06-.371-.09s-.315-.051-.498-.051c-.431 0-.735.104-.914.313-.179.209-.262.499-.262.882V201h-2.321Zm6.166 0v-9.818h2.313V201h-2.313Zm1.163-11.212c-.367 0-.682-.121-.946-.364-.264-.243-.396-.543-.396-.888-.002-.168.032-.335.1-.488.069-.154.17-.29.296-.401.264-.247.579-.371.946-.371s.686.124.946.371c.126.111.227.247.296.401.068.153.102.32.1.488 0 .345-.132.641-.396.888s-.575.364-.946.364Zm7.813 11.404c-.981 0-1.822-.215-2.525-.646-.703-.431-1.238-1.025-1.617-1.783-.375-.763-.563-1.641-.563-2.634 0-.993.192-1.877.575-2.64.383-.763.925-1.363 1.624-1.789.699-.426 1.534-.646 2.493-.646.797 0 1.502.147 2.116.441.614.294 1.11.701 1.476 1.234.367.528.575 1.146.627 1.853h-2.212c-.09-.473-.303-.867-.639-1.182-.336-.315-.778-.48-1.336-.48-.473 0-.889.128-1.247.384-.358.256-.637.614-.837 1.087-.2.473-.294 1.039-.294 1.7 0 .669.098 1.244.294 1.726.196.482.471.846.825 1.106.368.259.809.393 1.259.383.315.005.628-.06.914-.192.273-.132.501-.321.684-.569.183-.248.309-.547.377-.901h2.212c-.056.695-.26 1.311-.614 1.847s-.835.951-1.445 1.253c-.61.302-1.325.448-2.147.448Zm8.931.006c-.622 0-1.183-.111-1.681-.332-.495-.226-.887-.558-1.176-.997-.289-.439-.429-.981-.429-1.624 0-.554.103-1.012.307-1.374.204-.362.484-.652.838-.87.371-.224.774-.39 1.195-.492.447-.115.91-.198 1.387-.249l1.4-.16c.358-.051.618-.128.78-.23.162-.102.249-.271.249-.492v-.039c0-.481-.143-.854-.428-1.118-.285-.264-.697-.396-1.234-.396-.567 0-1.016.123-1.349.37-.328.247-.549.539-.665.876l-2.16-.307c.17-.596.452-1.095.844-1.496.392-.401.871-.707 1.438-.907.604-.211 1.24-.315 1.879-.307.473 0 .944.055 1.413.166.469.111.897.294 1.285.55.387.251.698.594.933 1.029.235.435.358.978.358 1.63V201h-2.225v-1.349h-.076c-.141.273-.339.529-.595.767-.277.25-.6.444-.952.569-.379.141-.825.211-1.336.211Zm.601-1.7c.464 0 .867-.092 1.208-.275.324-.171.596-.428.786-.741.188-.307.281-.642.281-1.004v-1.157c-.072.06-.196.115-.37.166-.189.055-.382.1-.576.134l-.633.103-.543.076c-.317.04-.628.118-.927.231-.25.09-.473.244-.645.447-.158.187-.237.43-.237.729 0 .426.156.748.467.965.311.217.707.326 1.189.326Zm11.812-8.316v1.79h-5.644v-1.79h5.644Zm-4.25-2.352h2.313v9.217c0 .311.047.55.141.716.094.166.226.273.384.332.168.062.345.092.524.09.145 0 .277-.011.396-.032l.281-.058.39 1.809c-.123.043-.3.09-.53.141-.273.056-.552.086-.831.089-.58.017-1.102-.07-1.566-.262-.451-.185-.837-.501-1.106-.908-.269-.409-.401-.92-.396-1.534v-9.6Zm6.185 12.17v-9.818h2.314V201h-2.314Zm1.164-11.212c-.367 0-.682-.121-.946-.364-.264-.243-.397-.543-.397-.888s.133-.646.397-.889.579-.371.946-.371.686.124.946.371c.126.111.227.247.296.401.068.153.102.32.1.488 0 .345-.132.641-.396.888s-.575.364-.946.364Zm7.812 11.404c-.958 0-1.789-.211-2.492-.633-.703-.422-1.249-1.012-1.637-1.771-.388-.759-.575-1.645-.575-2.659 0-1.014.192-1.902.575-2.665.383-.763.933-1.355 1.637-1.777.704-.422 1.534-.633 2.492-.633s1.79.211 2.493.633c.703.422 1.247 1.014 1.63 1.777.383.763.582 1.651.582 2.665s-.194 1.901-.582 2.659c-.361.735-.927 1.35-1.63 1.771-.703.422-1.534.633-2.493.633Zm.013-1.854c.52 0 .955-.143 1.304-.428.349-.285.61-.678.78-1.164.181-.522.269-1.071.262-1.623 0-.601-.087-1.144-.262-1.63-.175-.486-.43-.88-.78-1.17-.35-.29-.784-.435-1.304-.435-.532 0-.976.145-1.329.435-.353.29-.612.68-.787 1.17-.175.49-.255 1.029-.255 1.63s.085 1.138.255 1.623c.17.485.437.874.787 1.164.35.29.797.428 1.329.428Zm8.97-4.091V201h-2.314v-9.818h2.212v1.668h.115c.226-.55.586-.986 1.08-1.31.494-.324 1.114-.486 1.847-.486.678 0 1.268.145 1.771.435.503.29.899.709 1.176 1.259.277.55.42 1.216.415 2.001V201h-2.313v-5.893c0-.657-.171-1.17-.512-1.541-.341-.371-.803-.556-1.4-.556-.405 0-.765.089-1.08.268-.315.179-.556.429-.735.761-.179.332-.262.735-.262 1.208Z"/>
  </g>
  <defs>
    <clipPath id="a">
      <path fill="#fff" d="M0 0h1341v305H0z"/>
    </clipPath>
  </defs>
</svg>
