<svg xmlns="http://www.w3.org/2000/svg" width="900" height="320" fill="none">
  <defs>
    <style>
      @font-face{font-family:&quot;Inter&quot;;src:url(https://fonts.gstatic.com/s/inter/v18/UcCO3FwrK3iLTeHuS_nVMrMxCp50SjIw2boKoduKmMEVuLyfAZ9hiA.woff2)format(&quot;woff2&quot;)}@font-face{font-family:&quot;GitLab Mono&quot;;src:url(https://docs.gitlab.com/assets/vendor/GitLabMono.woff2)format(&quot;woff2&quot;)}
    </style>
  </defs>
  <path fill="#EAEAAE" d="M1 1h898v318H1z"/>
  <path stroke="#000" stroke-width="2" d="M1 1h898v318H1z"/>
  <path fill="#003972" d="M2 2h896v16H2z"/>
  <path stroke="#000" stroke-width="2" d="M2 19h896"/>
  <path fill="#ADCBE9" d="M230 50h668v82H230z"/>
  <path fill="#AEEAAE" d="M230 132h668v171H230z"/>
  <text xml:space="preserve" fill="#fff" font-family="Inter" font-size="10" font-weight="600" letter-spacing="0em" style="white-space:pre"><tspan x="18.1885" y="13.6364">Depth 0</tspan></text>
  <text xml:space="preserve" fill="#fff" font-family="Inter" font-size="10" font-weight="600" letter-spacing="0em" style="white-space:pre"><tspan x="96.6211" y="13.6364">Depth 1</tspan></text>
  <text xml:space="preserve" fill="#fff" font-family="Inter" font-size="10" font-weight="600" letter-spacing="0em" style="white-space:pre"><tspan x="173.418" y="13.6364">Depth 2</tspan></text>
  <text xml:space="preserve" fill="#fff" font-family="Inter" font-size="10" font-weight="600" letter-spacing="0em" style="white-space:pre"><tspan x="300.767" y="13.6364">Depth 3</tspan></text>
  <path stroke="#000" stroke-width="2" d="M75 2v18M155 2v18M230 2v18M410 2v18"/>
  <text xml:space="preserve" fill="#fff" font-family="Inter" font-size="10" font-weight="600" letter-spacing="0em" style="white-space:pre"><tspan x="448.193" y="13.6364">Depth 4</tspan></text>
  <path stroke="#000" stroke-width="2" d="M525 2v18"/>
  <text xml:space="preserve" fill="#fff" font-family="Inter" font-size="10" font-weight="600" letter-spacing="0em" style="white-space:pre"><tspan x="575.859" y="13.6364">Depth 5</tspan></text>
  <path stroke="#000" stroke-width="2" d="M665 2v18"/>
  <text xml:space="preserve" fill="#fff" font-family="Inter" font-size="10" font-weight="600" letter-spacing="0em" style="white-space:pre"><tspan x="713.281" y="13.6364">Depth 6</tspan></text>
  <text xml:space="preserve" fill="#fff" font-family="Inter" font-size="10" font-weight="600" letter-spacing="0em" style="white-space:pre"><tspan x="831.089" y="13.6364">Depth 7</tspan></text>
  <path stroke="#000" stroke-width="2" d="M800 2v18"/>
  <text xml:space="preserve" fill="#000" font-family="GitLab Mono" font-size="8" font-weight="600" letter-spacing="0em" style="white-space:pre"><tspan x="770.531" y="128.88"> </tspan><tspan x="665" y="138.88"> </tspan><tspan x="665" y="148.88"> </tspan><tspan x="665" y="158.88">... </tspan><tspan x="756.141" y="178.88"> </tspan><tspan x="665" y="188.88"> </tspan><tspan x="665" y="198.88"> </tspan><tspan x="665" y="208.88"> </tspan><tspan x="665" y="218.88">interpolation_filter_search </tspan><tspan x="756.141" y="248.88"> </tspan><tspan x="665" y="258.88"> </tspan><tspan x="665" y="268.88"> </tspan><tspan x="665" y="278.88">... </tspan></text>
  <text xml:space="preserve" fill="#00F" font-family="GitLab Mono" font-size="8" font-weight="600" letter-spacing="0em" style="white-space:pre"><tspan x="665" y="88.88"> </tspan><tspan x="665" y="98.88">inter_intra_search </tspan><tspan x="665" y="108.88">determine_compound_mode </tspan><tspan x="665" y="118.88"> </tspan><tspan x="665" y="128.88">determine_compound_mode</tspan><tspan x="665" y="168.88">warped_motion_prediction </tspan><tspan x="665" y="178.88">av1_inter_prediction</tspan><tspan x="665" y="228.88"> </tspan><tspan x="665" y="238.88">warped_motion_prediction </tspan><tspan x="665" y="248.88">av1_inter_prediction</tspan><tspan x="665" y="288.88">warped_motion_prediction </tspan><tspan x="665" y="298.88">av1_inter_prediction</tspan></text>
  <text xml:space="preserve" fill="#000" font-family="GitLab Mono" font-size="8" font-weight="600" letter-spacing="0em" style="white-space:pre"><tspan x="0" y="28.38"> enc_dec_kernel</tspan></text>
  <text xml:space="preserve" fill="#000" font-family="GitLab Mono" font-size="8" font-weight="600" letter-spacing="0em" style="white-space:pre"><tspan x="75" y="27.88"> </tspan><tspan x="75" y="37.88">mode_decision_sb</tspan></text>
  <text xml:space="preserve" fill="#000" font-family="GitLab Mono" font-size="8" font-weight="600" letter-spacing="0em" style="white-space:pre"><tspan x="155" y="38.38"> </tspan><tspan x="155" y="49.38">md_encode_block</tspan></text>
  <text xml:space="preserve" fill="#000" font-family="GitLab Mono" font-size="8" font-weight="600" letter-spacing="0em" style="white-space:pre"><tspan x="230" y="48.88">... </tspan><tspan x="402.688" y="58.88"> </tspan><tspan x="230" y="68.88">generate_md_stage_0_cand </tspan><tspan x="230" y="78.88"> </tspan><tspan x="230" y="88.88"> </tspan><tspan x="230" y="98.88"> </tspan><tspan x="230" y="108.88"> </tspan><tspan x="230" y="118.88"> </tspan><tspan x="230" y="128.88"> </tspan><tspan x="230" y="138.88">md_stage_0 </tspan><tspan x="230" y="148.88"> </tspan><tspan x="230" y="158.88"> </tspan><tspan x="230" y="168.88"> </tspan><tspan x="230" y="178.88"> </tspan><tspan x="230" y="188.88">md_stage_1 </tspan><tspan x="230" y="198.88"> </tspan><tspan x="230" y="208.88"> </tspan><tspan x="230" y="218.88"> </tspan><tspan x="230" y="228.88"> </tspan><tspan x="230" y="238.88"> </tspan><tspan x="230" y="248.88"> </tspan><tspan x="230" y="258.88">md_stage_2</tspan></text>
  <text xml:space="preserve" fill="#00F" font-family="GitLab Mono" font-size="8" font-weight="600" letter-spacing="0em" style="white-space:pre"><tspan x="230" y="58.88">precompute_intra_pred_for_inter_intra</tspan></text>
  <text xml:space="preserve" fill="#000" font-family="GitLab Mono" font-size="8" font-weight="600" letter-spacing="0em" style="white-space:pre"><tspan x="410" y="68.88">... </tspan><tspan x="410" y="78.88">inject_inter_candidates </tspan><tspan x="410" y="88.88"> </tspan><tspan x="410" y="98.88"> </tspan><tspan x="410" y="108.88"> </tspan><tspan x="410" y="118.88"> </tspan><tspan x="410" y="128.88"> </tspan><tspan x="410" y="138.88">... </tspan><tspan x="410" y="148.88">fast_loop_core </tspan><tspan x="410" y="158.88"> </tspan><tspan x="410" y="168.88"> </tspan><tspan x="410" y="178.88"> </tspan><tspan x="410" y="188.88"> </tspan><tspan x="410" y="198.88">full_loop_core </tspan><tspan x="410" y="208.88"> </tspan><tspan x="410" y="218.88"> </tspan><tspan x="410" y="228.88"> </tspan><tspan x="410" y="238.88"> </tspan><tspan x="410" y="248.88"> </tspan><tspan x="410" y="258.88"> </tspan><tspan x="410" y="268.88">full_loop_core</tspan></text>
  <text xml:space="preserve" fill="#000" font-family="GitLab Mono" font-size="8" font-weight="600" letter-spacing="0em" style="white-space:pre"><tspan x="795" y="218.88"> </tspan></text>
  <text xml:space="preserve" fill="#00F" font-family="GitLab Mono" font-size="8" font-weight="600" letter-spacing="0em" style="white-space:pre"><tspan x="795" y="228.88">av1_inter_prediction</tspan></text>
  <text xml:space="preserve" fill="#000" font-family="GitLab Mono" font-size="8" font-weight="600" letter-spacing="0em" style="white-space:pre"><tspan x="548.539" y="118.88">GLOBAL_GLOBAL</tspan><tspan x="525" y="158.88">inter_pu_prediction_av1 </tspan><tspan x="525" y="168.88"> </tspan><tspan x="525" y="178.88"> </tspan><tspan x="525" y="188.88"> </tspan><tspan x="525" y="198.88"> </tspan><tspan x="525" y="208.88">inter_pu_prediction_av1 </tspan><tspan x="525" y="218.88"> </tspan><tspan x="525" y="228.88"> </tspan><tspan x="525" y="238.88"> </tspan><tspan x="525" y="248.88"> </tspan><tspan x="525" y="258.88"> </tspan><tspan x="525" y="268.88"> </tspan><tspan x="525" y="278.88">inter_pu_prediction_av1</tspan></text>
  <text xml:space="preserve" fill="#000" font-family="Inter" font-size="8" font-weight="600" letter-spacing="0em" style="white-space:pre"><tspan x="657.836" y="88.88">* </tspan><tspan x="525" y="98.88"> </tspan><tspan x="525" y="108.88"> </tspan><tspan x="525" y="118.88">Inject </tspan><tspan x="610.898" y="118.88"> candidates* </tspan><tspan x="525" y="128.88"> </tspan><tspan x="525" y="138.88"> </tspan><tspan x="525" y="148.88"> </tspan></text>
  <text xml:space="preserve" fill="#000" font-family="GitLab Mono" font-size="8" font-weight="600" letter-spacing="0em" style="white-space:pre"><tspan x="525" y="78.88">... </tspan><tspan x="548.539" y="88.88">GLOBAL</tspan><tspan x="624.258" y="88.88">(List0)</tspan></text>
  <text xml:space="preserve" fill="#000" font-family="Inter" font-size="8" font-weight="600" letter-spacing="0em" style="white-space:pre"><tspan x="525" y="88.88">Inject </tspan><tspan x="577.32" y="88.88"> candidates </tspan></text>
  <path fill="#fff" d="M2 303h896v15H2z"/>
  <text xml:space="preserve" fill="#000" font-family="Inter" font-size="8" font-weight="600" letter-spacing="0em" style="white-space:pre"><tspan x="2" y="313.409">* These names are not function names but describe section of the code.</tspan></text>
</svg>
